<svg width="105" height="104" viewBox="0 0 105 104" fill="none" xmlns="http://www.w3.org/2000/svg">
<path d="M7.35559 39.4333C7.35559 27.9056 7.35559 22.1417 9.58151 17.7387C11.5395 13.8657 14.6637 10.7168 18.5065 8.74345C22.8751 6.5 28.5939 6.5 40.0316 6.5H64.9686C76.4063 6.5 82.1251 6.5 86.4938 8.74345C90.3365 10.7168 93.4608 13.8657 95.4187 17.7387C97.6447 22.1417 97.6447 27.9056 97.6447 39.4333V64.5667C97.6447 76.0944 97.6447 81.8583 95.4187 86.2613C93.4608 90.1343 90.3365 93.2832 86.4938 95.2566C82.1251 97.5 76.4063 97.5 64.9686 97.5H40.0316C28.5939 97.5 22.8751 97.5 18.5065 95.2566C14.6637 93.2832 11.5395 90.1343 9.58151 86.2613C7.35559 81.8583 7.35559 76.0944 7.35559 64.5667V39.4333Z" fill="white"/>
<path d="M7.35559 39.4333C7.35559 27.9056 7.35559 22.1417 9.58151 17.7387C11.5395 13.8657 14.6637 10.7168 18.5065 8.74345C22.8751 6.5 28.5939 6.5 40.0316 6.5H64.9686C76.4063 6.5 82.1251 6.5 86.4938 8.74345C90.3365 10.7168 93.4608 13.8657 95.4187 17.7387C97.6447 22.1417 97.6447 27.9056 97.6447 39.4333V64.5667C97.6447 76.0944 97.6447 81.8583 95.4187 86.2613C93.4608 90.1343 90.3365 93.2832 86.4938 95.2566C82.1251 97.5 76.4063 97.5 64.9686 97.5H40.0316C28.5939 97.5 22.8751 97.5 18.5065 95.2566C14.6637 93.2832 11.5395 90.1343 9.58151 86.2613C7.35559 81.8583 7.35559 76.0944 7.35559 64.5667V39.4333Z" fill="url(#paint0_radial_503_5143)"/>
<path d="M7.35559 39.4333C7.35559 27.9056 7.35559 22.1417 9.58151 17.7387C11.5395 13.8657 14.6637 10.7168 18.5065 8.74345C22.8751 6.5 28.5939 6.5 40.0316 6.5H64.9686C76.4063 6.5 82.1251 6.5 86.4938 8.74345C90.3365 10.7168 93.4608 13.8657 95.4187 17.7387C97.6447 22.1417 97.6447 27.9056 97.6447 39.4333V64.5667C97.6447 76.0944 97.6447 81.8583 95.4187 86.2613C93.4608 90.1343 90.3365 93.2832 86.4938 95.2566C82.1251 97.5 76.4063 97.5 64.9686 97.5H40.0316C28.5939 97.5 22.8751 97.5 18.5065 95.2566C14.6637 93.2832 11.5395 90.1343 9.58151 86.2613C7.35559 81.8583 7.35559 76.0944 7.35559 64.5667V39.4333Z" fill="url(#paint1_radial_503_5143)"/>
<path d="M7.35559 39.4333C7.35559 27.9056 7.35559 22.1417 9.58151 17.7387C11.5395 13.8657 14.6637 10.7168 18.5065 8.74345C22.8751 6.5 28.5939 6.5 40.0316 6.5H64.9686C76.4063 6.5 82.1251 6.5 86.4938 8.74345C90.3365 10.7168 93.4608 13.8657 95.4187 17.7387C97.6447 22.1417 97.6447 27.9056 97.6447 39.4333V64.5667C97.6447 76.0944 97.6447 81.8583 95.4187 86.2613C93.4608 90.1343 90.3365 93.2832 86.4938 95.2566C82.1251 97.5 76.4063 97.5 64.9686 97.5H40.0316C28.5939 97.5 22.8751 97.5 18.5065 95.2566C14.6637 93.2832 11.5395 90.1343 9.58151 86.2613C7.35559 81.8583 7.35559 76.0944 7.35559 64.5667V39.4333Z" fill="url(#paint2_radial_503_5143)"/>
<path d="M7.35559 39.4333C7.35559 27.9056 7.35559 22.1417 9.58151 17.7387C11.5395 13.8657 14.6637 10.7168 18.5065 8.74345C22.8751 6.5 28.5939 6.5 40.0316 6.5H64.9686C76.4063 6.5 82.1251 6.5 86.4938 8.74345C90.3365 10.7168 93.4608 13.8657 95.4187 17.7387C97.6447 22.1417 97.6447 27.9056 97.6447 39.4333V64.5667C97.6447 76.0944 97.6447 81.8583 95.4187 86.2613C93.4608 90.1343 90.3365 93.2832 86.4938 95.2566C82.1251 97.5 76.4063 97.5 64.9686 97.5H40.0316C28.5939 97.5 22.8751 97.5 18.5065 95.2566C14.6637 93.2832 11.5395 90.1343 9.58151 86.2613C7.35559 81.8583 7.35559 76.0944 7.35559 64.5667V39.4333Z" fill="url(#paint3_radial_503_5143)"/>
<path d="M7.35559 39.4333C7.35559 27.9056 7.35559 22.1417 9.58151 17.7387C11.5395 13.8657 14.6637 10.7168 18.5065 8.74345C22.8751 6.5 28.5939 6.5 40.0316 6.5H64.9686C76.4063 6.5 82.1251 6.5 86.4938 8.74345C90.3365 10.7168 93.4608 13.8657 95.4187 17.7387C97.6447 22.1417 97.6447 27.9056 97.6447 39.4333V64.5667C97.6447 76.0944 97.6447 81.8583 95.4187 86.2613C93.4608 90.1343 90.3365 93.2832 86.4938 95.2566C82.1251 97.5 76.4063 97.5 64.9686 97.5H40.0316C28.5939 97.5 22.8751 97.5 18.5065 95.2566C14.6637 93.2832 11.5395 90.1343 9.58151 86.2613C7.35559 81.8583 7.35559 76.0944 7.35559 64.5667V39.4333Z" fill="url(#paint4_radial_503_5143)"/>
<path d="M7.35559 39.4333C7.35559 27.9056 7.35559 22.1417 9.58151 17.7387C11.5395 13.8657 14.6637 10.7168 18.5065 8.74345C22.8751 6.5 28.5939 6.5 40.0316 6.5H64.9686C76.4063 6.5 82.1251 6.5 86.4938 8.74345C90.3365 10.7168 93.4608 13.8657 95.4187 17.7387C97.6447 22.1417 97.6447 27.9056 97.6447 39.4333V64.5667C97.6447 76.0944 97.6447 81.8583 95.4187 86.2613C93.4608 90.1343 90.3365 93.2832 86.4938 95.2566C82.1251 97.5 76.4063 97.5 64.9686 97.5H40.0316C28.5939 97.5 22.8751 97.5 18.5065 95.2566C14.6637 93.2832 11.5395 90.1343 9.58151 86.2613C7.35559 81.8583 7.35559 76.0944 7.35559 64.5667V39.4333Z" fill="url(#paint5_radial_503_5143)"/>
<path d="M7.35559 39.4333C7.35559 27.9056 7.35559 22.1417 9.58151 17.7387C11.5395 13.8657 14.6637 10.7168 18.5065 8.74345C22.8751 6.5 28.5939 6.5 40.0316 6.5H64.9686C76.4063 6.5 82.1251 6.5 86.4938 8.74345C90.3365 10.7168 93.4608 13.8657 95.4187 17.7387C97.6447 22.1417 97.6447 27.9056 97.6447 39.4333V64.5667C97.6447 76.0944 97.6447 81.8583 95.4187 86.2613C93.4608 90.1343 90.3365 93.2832 86.4938 95.2566C82.1251 97.5 76.4063 97.5 64.9686 97.5H40.0316C28.5939 97.5 22.8751 97.5 18.5065 95.2566C14.6637 93.2832 11.5395 90.1343 9.58151 86.2613C7.35559 81.8583 7.35559 76.0944 7.35559 64.5667V39.4333Z" fill="url(#paint6_radial_503_5143)"/>
<path d="M79.8126 33.9165C75.0348 28.5887 68.3008 25.5943 61.3034 25.6332C54.4565 25.6332 47.4967 28.6665 43.0198 33.5665C42.1922 33.4887 41.3645 33.411 40.5745 33.411C27.144 33.411 18.8299 45.0776 18.8299 55.8887C18.8675 61.7221 21.0495 67.3221 24.9244 71.5998C28.9874 76.0721 34.6305 78.5998 40.5745 78.5998H61.3034C75.3734 78.5998 86.81 66.661 86.81 52.0387C86.7348 45.311 84.2518 38.8554 79.8126 33.9165ZM40.1607 74.7887C30.1913 74.7887 22.1405 66.4276 22.1405 56.1221C22.1405 45.8943 30.1536 37.5721 40.0854 37.4943C44.487 37.4943 49.1143 38.9721 52.0487 42.1999L59.6104 50.211C60.8519 51.5332 60.8143 53.6332 59.5352 54.9165C58.2561 56.1999 56.2246 56.161 54.9831 54.8387L47.6095 46.9832C42.7941 42.7054 35.5334 43.2499 31.3951 48.2276C29.5893 50.3665 28.6112 53.1276 28.6112 55.9665C28.6112 62.4999 33.9909 68.0221 40.3488 68.0221H41.816C43.9227 71.0554 49.8291 74.7887 49.8291 74.7887H40.1607ZM77.1039 68.0998C73.0786 72.4554 67.5107 74.9054 61.6796 74.9443C56.1494 74.9443 50.5063 72.3776 46.1799 67.9443L36.3234 57.6776C35.0819 56.3554 35.1195 54.2554 36.361 52.9721C36.9629 52.3499 37.753 52.0387 38.6182 52.0387C39.4835 52.0387 40.3112 52.3887 40.9131 53.0499L50.732 63.1999C53.8545 66.4276 57.8423 68.2554 61.6796 68.2554C65.7802 68.2554 69.6927 66.5054 72.5143 63.3943C75.411 60.3221 77.0287 56.1999 77.0287 51.9221C77.0287 43.1332 70.1066 36.0165 61.6043 35.9776C58.369 35.9776 55.6979 36.6387 53.0645 38.5443C51.5737 37.0032 48.3619 35.4721 46.8947 35.161C50.9577 31.2332 56.0365 29.3276 61.6043 29.3276C73.6805 29.3276 83.4242 39.4387 83.4618 51.9221C83.4618 57.9499 81.2046 63.7832 77.1039 68.0998Z" fill="white"/>
<defs>
<radialGradient id="paint0_radial_503_5143" cx="0" cy="0" r="1" gradientUnits="userSpaceOnUse" gradientTransform="translate(82.4084 84.2778) rotate(47.0942) scale(54.1544 55.439)">
<stop stop-color="#68E048"/>
<stop offset="1" stop-color="#5CE049" stop-opacity="0"/>
</radialGradient>
<radialGradient id="paint1_radial_503_5143" cx="0" cy="0" r="1" gradientUnits="userSpaceOnUse" gradientTransform="translate(21.6514 83.8889) rotate(137.14) scale(55.1714 56.7573)">
<stop stop-color="#308CFE"/>
<stop offset="1" stop-color="#2F8BFF" stop-opacity="0"/>
</radialGradient>
<radialGradient id="paint2_radial_503_5143" cx="0" cy="0" r="1" gradientUnits="userSpaceOnUse" gradientTransform="translate(80.7155 57.4444) rotate(7.96151) scale(32.2886 34.1909)">
<stop stop-color="#FDD511"/>
<stop offset="1" stop-color="#FDD20D" stop-opacity="0"/>
</radialGradient>
<radialGradient id="paint3_radial_503_5143" cx="0" cy="0" r="1" gradientUnits="userSpaceOnUse" gradientTransform="translate(22.78 39.3611) rotate(-126.918) scale(47.9122 48.7141)">
<stop stop-color="#F928C2"/>
<stop offset="1" stop-color="#F922BC" stop-opacity="0"/>
</radialGradient>
<radialGradient id="paint4_radial_503_5143" cx="0" cy="0" r="1" gradientUnits="userSpaceOnUse" gradientTransform="translate(58.5194 21.6667) rotate(-63.5835) scale(48.1995 48.472)">
<stop stop-color="#F90700"/>
<stop offset="1" stop-color="#F90700" stop-opacity="0"/>
</radialGradient>
<radialGradient id="paint5_radial_503_5143" cx="0" cy="0" r="1" gradientUnits="userSpaceOnUse" gradientTransform="translate(92.754 19.7222) rotate(-65.8616) scale(28.9783 29.0816)">
<stop stop-color="#FB4200"/>
<stop offset="1" stop-color="#FB4300" stop-opacity="0"/>
</radialGradient>
<radialGradient id="paint6_radial_503_5143" cx="0" cy="0" r="1" gradientUnits="userSpaceOnUse" gradientTransform="translate(16.7607 17.5833) rotate(-133.448) scale(25.7115 26.3379)">
<stop stop-color="#FE0D88"/>
<stop offset="1" stop-color="#FE0D88" stop-opacity="0"/>
</radialGradient>
</defs>
</svg>
