<svg width="30" height="28" viewBox="0 0 30 28" fill="none" xmlns="http://www.w3.org/2000/svg">
<path d="M11.9988 18.8507H20.8194C21.2244 18.4012 21.8245 18.1257 22.4995 18.1257C23.7446 18.1257 24.7497 19.0972 24.7497 20.3008C24.7497 21.5043 23.7446 22.4758 22.4995 22.4758C21.8395 22.4758 21.2394 22.2003 20.8194 21.7508H14.849C14.5777 23.034 13.9519 24.2221 13.038 25.1891C12.1242 26.156 10.9564 26.8656 9.65884 27.2425C8.36125 27.6194 6.98228 27.6495 5.66843 27.3296C4.35457 27.0097 3.1549 26.3517 2.19684 25.4256C1.23878 24.4995 0.558132 23.3399 0.227188 22.0698C-0.103756 20.7998 -0.0726315 19.4668 0.317256 18.2125C0.707143 16.9582 1.44123 15.8295 2.44154 14.9461C3.44185 14.0627 4.67101 13.4578 5.99846 13.1955V16.1971C4.25835 16.7916 2.99827 18.4157 2.99827 20.3008C2.99827 22.6933 5.0234 24.6509 7.49856 24.6509C9.97372 24.6509 11.9988 22.6933 11.9988 20.3008V18.8507ZM15.7491 2.90011C18.2242 2.90011 20.2494 4.85768 20.2494 7.25027H23.2496C23.2496 3.24812 19.8894 0 15.7491 0C14.2507 0.00115624 12.787 0.435913 11.5466 1.24827C10.3061 2.06063 9.34558 3.21339 8.78883 4.55806C8.23207 5.90274 8.10454 7.37774 8.42266 8.7931C8.74078 10.2085 9.48998 11.4993 10.5738 12.4995L7.04853 18.1547C6.02846 18.3577 5.24841 19.2422 5.24841 20.3008C5.24841 21.5043 6.25348 22.4758 7.49856 22.4758C7.85196 22.4762 8.20048 22.3961 8.51581 22.2419C8.83115 22.0876 9.10441 21.8637 9.31339 21.5882C9.52238 21.3127 9.66121 20.9935 9.7186 20.6564C9.77599 20.3193 9.75033 19.9739 9.6437 19.6482L14.714 11.4844C13.7279 11.2583 12.8494 10.7174 12.2206 9.94911C11.5918 9.18079 11.2495 8.22995 11.2488 7.25027C11.2488 4.85768 13.2739 2.90011 15.7491 2.90011ZM22.4995 15.9506C21.5395 15.9506 20.6544 16.2406 19.9194 16.7336L15.3441 9.38185C14.294 9.20784 13.4989 8.32331 13.4989 7.25027C13.4989 6.04672 14.504 5.07519 15.7491 5.07519C16.9942 5.07519 17.9992 6.04672 17.9992 7.25027C17.9992 7.46778 17.9692 7.67078 17.9092 7.87379L21.1944 13.1665C21.6145 13.094 22.0495 13.0505 22.4995 13.0505C26.6398 13.0505 30 16.2986 30 20.3008C30 24.3029 26.6398 27.551 22.4995 27.551C21.1829 27.551 19.8896 27.216 18.7494 26.5796C17.6092 25.9433 16.6624 25.028 16.0041 23.9259H20.0094C20.7294 24.3899 21.5845 24.6509 22.4995 24.6509C24.9747 24.6509 26.9998 22.6933 26.9998 20.3008C26.9998 17.9082 24.9747 15.9506 22.4995 15.9506Z" fill="url(#paint0_linear_254_8300)"/>
<defs>
<linearGradient id="paint0_linear_254_8300" x1="-3.823e-07" y1="27.551" x2="24.8629" y2="1.87276" gradientUnits="userSpaceOnUse">
<stop stop-color="#7B00DB"/>
<stop offset="1" stop-color="#ED1F78"/>
</linearGradient>
</defs>
</svg>
