<svg width="44" height="42" viewBox="0 0 44 42" fill="none" xmlns="http://www.w3.org/2000/svg">
<path d="M18.8135 2.78114C19.7116 0.0172114 23.6218 0.0172048 24.5199 2.78114L27.5041 11.9655C27.9057 13.2016 29.0576 14.0385 30.3572 14.0385L40.0143 14.0385C42.9205 14.0385 44.1288 17.7573 41.7776 19.4655L33.9649 25.1418C32.9135 25.9058 32.4735 27.2599 32.8751 28.4959L35.8593 37.6803C36.7574 40.4443 33.5939 42.7426 31.2428 41.0344L23.4301 35.3582C22.3786 34.5942 20.9548 34.5942 19.9033 35.3582L12.0906 41.0344C9.73948 42.7426 6.57604 40.4443 7.47409 37.6803L10.4583 28.4959C10.8599 27.2599 10.4199 25.9057 9.36848 25.1418L1.55575 19.4655C-0.795393 17.7573 0.412939 14.0385 3.31911 14.0385L12.9762 14.0385C14.2758 14.0385 15.4277 13.2016 15.8293 11.9655L18.8135 2.78114Z" fill="url(#paint0_linear_415_4814)"/>
<defs>
<linearGradient id="paint0_linear_415_4814" x1="0.313354" y1="41.621" x2="37.2517" y2="5.04932" gradientUnits="userSpaceOnUse">
<stop stop-color="#7B00DB"/>
<stop offset="1" stop-color="#ED1F78"/>
</linearGradient>
</defs>
</svg>
