<svg width="30" height="30" viewBox="0 0 30 30" fill="none" xmlns="http://www.w3.org/2000/svg">
<path d="M14.3362 7.56622H8.52565C7.91161 7.56603 7.3124 7.75481 6.80937 8.10693C6.30633 8.45904 5.92385 8.95743 5.71385 9.53442L0.0902551 25.0019C-0.108665 25.5478 0.0274382 26.1595 0.437243 26.5707L0.875464 27.009L10.4804 17.4042C10.4789 17.3654 10.4685 17.3265 10.4685 17.2876C10.4685 16.8439 10.6001 16.4101 10.8466 16.0412C11.0931 15.6723 11.4435 15.3848 11.8534 15.215C12.2633 15.0452 12.7144 15.0007 13.1496 15.0873C13.5848 15.1739 13.9845 15.3875 14.2983 15.7013C14.612 16.015 14.8257 16.4147 14.9123 16.8499C14.9988 17.2851 14.9544 17.7362 14.7846 18.1461C14.6148 18.556 14.3273 18.9064 13.9583 19.1529C13.5894 19.3994 13.1556 19.531 12.7119 19.531C12.673 19.531 12.6342 19.5205 12.5953 19.519L2.99029 29.1237L3.42852 29.5619C3.62961 29.7635 3.88422 29.9033 4.16224 29.9648C4.44027 30.0263 4.73009 30.0069 4.99744 29.9089L20.4653 24.284C21.0423 24.074 21.5407 23.6915 21.8928 23.1885C22.245 22.6855 22.4338 22.0863 22.4336 21.4723V15.6619L25.4234 12.6737L17.326 4.57652L14.3362 7.56622ZM26.8293 10.6501L19.3511 3.17216L22.5218 0L30 7.47798L26.8293 10.6501Z" fill="url(#paint0_linear_254_8311)"/>
<defs>
<linearGradient id="paint0_linear_254_8311" x1="-3.823e-07" y1="30" x2="27.0492" y2="4.34426" gradientUnits="userSpaceOnUse">
<stop stop-color="#7B00DB"/>
<stop offset="1" stop-color="#ED1F78"/>
</linearGradient>
</defs>
</svg>
