<svg width="55" height="38" viewBox="0 0 55 38" fill="none" xmlns="http://www.w3.org/2000/svg">
<path d="M52.1761 0.333374H19.1486C18.0661 0.333374 17.1915 1.21726 17.1915 2.3113V16.8985H2.75723C1.67467 16.8985 0.800049 17.7824 0.800049 18.8764V35.6888C0.800049 36.7828 1.67467 37.6667 2.75723 37.6667H35.7847C36.8673 37.6667 37.7419 36.7828 37.7419 35.6888V21.1016H52.1761C53.2587 21.1016 54.1333 20.2177 54.1333 19.1237V2.3113C54.1333 1.21726 53.2587 0.333374 52.1761 0.333374ZM33.5829 33.4636H21.3505V21.1016H33.5829V33.4636ZM49.9743 16.8985H37.7419V4.53647H49.9743V16.8985Z" fill="url(#paint0_linear_201_2802)"/>
<defs>
<linearGradient id="paint0_linear_201_2802" x1="0.800048" y1="37.6667" x2="33.0106" y2="-5.97783" gradientUnits="userSpaceOnUse">
<stop stop-color="#7B00DB"/>
<stop offset="1" stop-color="#ED1F78"/>
</linearGradient>
</defs>
</svg>
