<svg width="20" height="20" viewBox="0 0 20 20" fill="none" xmlns="http://www.w3.org/2000/svg">
<path d="M20 1.02651V18.9645C19.9997 19.2373 19.8933 19.4988 19.7041 19.6923C19.5148 19.8857 19.258 19.9954 18.9895 19.9975H13.7767V11.833H16.3749V9.3283H13.7767V6.96094C13.7767 6.24881 14.6798 5.63933 15.4187 5.63933H16.6376V3.38104H13.8588C12.7056 3.38104 11.1014 4.46784 11.1014 6.2424V9.3283H8.53227V11.833H11.1077V20H1.01048C0.742487 20 0.485466 19.8919 0.295964 19.6994C0.106461 19.5069 0 19.2458 0 18.9735V1.02651C0 0.754266 0.106461 0.493172 0.295964 0.300667C0.485466 0.108161 0.742487 1.28324e-05 1.01048 1.28324e-05H18.9845C19.1176 -0.00066334 19.2495 0.0253887 19.3727 0.0766722C19.4959 0.127956 19.6079 0.20346 19.7023 0.298846C19.7966 0.394232 19.8715 0.507621 19.9226 0.632497C19.9737 0.757373 20 0.891275 20 1.02651Z" fill="white"/>
</svg>
