<svg width="99" height="99" viewBox="0 0 99 99" fill="none" xmlns="http://www.w3.org/2000/svg">
<path fill-rule="evenodd" clip-rule="evenodd" d="M49.5001 49.5C49.5001 42.6655 55.0406 37.125 61.8751 37.125C68.7096 37.125 74.2501 42.6655 74.2501 49.5C74.2501 56.3345 68.7096 61.875 61.8751 61.875C55.0406 61.875 49.5001 56.3345 49.5001 49.5Z" fill="#1ABCFE"/>
<path fill-rule="evenodd" clip-rule="evenodd" d="M24.7501 74.25C24.7501 67.4155 30.2906 61.875 37.1251 61.875H49.5001V74.25C49.5001 81.0845 43.9596 86.625 37.1251 86.625C30.2906 86.625 24.7501 81.0845 24.7501 74.25Z" fill="#0ACF83"/>
<path fill-rule="evenodd" clip-rule="evenodd" d="M49.5001 12.375V37.125H61.8751C68.7096 37.125 74.2501 31.5845 74.2501 24.75C74.2501 17.9155 68.7096 12.375 61.8751 12.375H49.5001Z" fill="#FF7262"/>
<path fill-rule="evenodd" clip-rule="evenodd" d="M24.7501 24.75C24.7501 31.5845 30.2906 37.125 37.1251 37.125H49.5001V12.375H37.1251C30.2906 12.375 24.7501 17.9155 24.7501 24.75Z" fill="#F24E1E"/>
<path fill-rule="evenodd" clip-rule="evenodd" d="M24.7501 49.5C24.7501 56.3345 30.2906 61.875 37.1251 61.875H49.5001V37.125H37.1251C30.2906 37.125 24.7501 42.6655 24.7501 49.5Z" fill="#A259FF"/>
</svg>
