<svg width="39" height="41" viewBox="0 0 39 41" fill="none" xmlns="http://www.w3.org/2000/svg">
<path d="M38.037 35.8424C38.0407 36.5631 37.8899 37.2763 37.5946 37.9349C37.2992 38.5934 36.866 39.1822 36.3237 39.6622C35.7813 40.1423 35.1423 40.5025 34.4488 40.7192C33.7554 40.9359 33.0234 41.004 32.3014 40.919C29.6731 40.5335 27.7472 38.2666 27.8113 35.6338V5.36502C27.7478 2.72947 29.6785 0.46122 32.3102 0.079906C33.0315 -0.00380043 33.7625 0.065251 34.4549 0.282493C35.1473 0.499735 35.7853 0.860217 36.3266 1.3401C36.868 1.81997 37.3004 2.40831 37.5952 3.0662C37.8901 3.72408 38.0406 4.43652 38.037 5.15639V35.8424Z" fill="#F9AB00"/>
<path d="M5.91177 30.7901C8.64483 30.7901 10.8603 33.0656 10.8603 35.8723C10.8603 38.6791 8.64483 40.9544 5.91177 40.9544C3.17871 40.9544 0.963196 38.6791 0.963196 35.8724C0.963196 33.0656 3.17871 30.7901 5.91177 30.7901V30.7901ZM18.9325 15.3867C16.1866 15.5413 14.056 17.9068 14.1198 20.7305V34.3817C14.1198 38.0865 15.7071 40.3356 18.0328 40.815C18.7538 40.9651 19.4983 40.9485 20.2123 40.7664C20.9263 40.5843 21.5918 40.2413 22.1607 39.7622C22.7296 39.2831 23.1875 38.68 23.5012 37.9966C23.8149 37.3132 23.9766 36.5667 23.9745 35.8112V20.4952C23.9757 19.8181 23.8456 19.1476 23.5918 18.5227C23.338 17.8978 22.9656 17.331 22.4962 16.8555C22.0269 16.38 21.4701 16.0052 20.8582 15.7531C20.2463 15.5009 19.5917 15.3764 18.9325 15.3868V15.3867Z" fill="#E37400"/>
</svg>
