<svg width="59" height="59" viewBox="0 0 59 59" fill="none" xmlns="http://www.w3.org/2000/svg">
<path d="M35.6846 20.214C37.6582 16.7674 36.4869 12.3603 33.0686 10.3704C29.6502 8.38056 25.2792 9.56143 23.3056 13.008L8.54696 38.7818C6.57338 42.2283 7.7446 46.6354 11.1629 48.6253C14.5813 50.6152 18.9523 49.4343 20.9259 45.9877L35.6846 20.214Z" fill="#F8BB2D"/>
<path d="M21.8751 42.3887C21.8751 46.3695 18.6743 49.5967 14.7261 49.5967C10.7778 49.5967 7.57709 46.3695 7.57709 42.3887C7.57709 38.4078 10.7778 35.1807 14.7261 35.1807C18.6743 35.1807 21.8751 38.4078 21.8751 42.3887Z" fill="#3BA757"/>
<path d="M23.3269 20.214C21.3533 16.7674 22.5246 12.3603 25.9429 10.3704C29.3613 8.38056 33.7323 9.56143 35.7059 13.008L50.4645 38.7818C52.4381 42.2283 51.2669 46.6354 47.8486 48.6253C44.4302 50.6152 40.0592 49.4343 38.0856 45.9877L23.3269 20.214Z" fill="#4689F2"/>
</svg>
