<svg width="141" height="141" viewBox="0 0 141 141" fill="none" xmlns="http://www.w3.org/2000/svg">
<path fill-rule="evenodd" clip-rule="evenodd" d="M105.75 56.4511L105.75 56.6384C105.749 56.7173 105.748 56.7962 105.748 56.8751C105.749 56.9672 105.75 57.0599 105.75 57.1536C105.75 71.854 94.2971 84.8664 86.6331 93.5741C84.4092 96.1008 82.5044 98.2651 81.2909 100.003C76.9746 106.184 74.6966 112.881 74.0971 115.457C74.0971 117.396 72.4867 118.969 70.5001 118.969C68.5135 118.969 66.9032 117.396 66.9032 115.457C66.3037 112.881 64.0256 106.184 59.7093 100.003C58.4958 98.2651 56.591 96.1008 54.3672 93.5741C46.7031 84.8664 35.2501 71.854 35.2501 57.1536C35.2501 57.0599 35.2509 56.9672 35.2527 56.8751C35.2509 56.7339 35.2501 56.5926 35.2501 56.4511C35.2501 37.4415 51.032 22.0312 70.5001 22.0312C89.9682 22.0312 105.75 37.4415 105.75 56.4511ZM70.5001 69.0952C78.049 69.0952 84.1685 63.1198 84.1685 55.7487C84.1685 48.3776 78.049 42.4022 70.5001 42.4022C62.9513 42.4022 56.8317 48.3776 56.8317 55.7487C56.8317 63.1198 62.9513 69.0952 70.5001 69.0952Z" fill="#34A851"/>
<path d="M101.808 40.6192C97.4912 32.498 89.958 26.269 80.8558 23.5415L60.611 46.5363C63.1001 43.9898 66.6104 42.4033 70.5001 42.4033C78.0489 42.4033 84.1685 48.3787 84.1685 55.7498C84.1685 58.7568 83.1501 61.5316 81.4317 63.7631L101.808 40.6192Z" fill="#4285F5"/>
<path d="M54.7761 94.0402C54.6411 93.8867 54.5048 93.732 54.3673 93.5758C49.3154 87.836 42.6172 80.2259 38.6381 71.4947L59.6795 47.5952C57.8942 49.8506 56.8318 52.6792 56.8318 55.7504C56.8318 63.1214 62.9514 69.0968 70.5002 69.0968C74.3242 69.0968 77.7813 67.5635 80.2621 65.0922L54.7761 94.0402Z" fill="#F9BB0E"/>
<path d="M43.5906 34.2173C38.3876 40.2152 35.2501 47.9755 35.2501 56.4515C35.2501 56.593 35.2509 56.7343 35.2527 56.8755C35.2509 56.9676 35.2501 57.0603 35.2501 57.154C35.2501 62.1644 36.5806 66.9788 38.638 71.4934L59.6439 47.6343L43.5906 34.2173Z" fill="#E74335"/>
<path d="M80.8557 23.5406C77.5813 22.5595 74.1038 22.0312 70.5 22.0312C59.7124 22.0312 50.0566 26.763 43.5906 34.2169L59.6439 47.6337L59.6788 47.5941C59.9708 47.2252 60.2821 46.8716 60.6113 46.5347L80.8557 23.5406Z" fill="#1A73E6"/>
</svg>
