<svg width="21" height="20" viewBox="0 0 21 20" fill="none" xmlns="http://www.w3.org/2000/svg">
<path d="M13.2294 4.06982H6.87627C5.32203 4.06982 4.06232 5.32954 4.06232 6.88337V13.2365C4.06232 14.7907 5.32203 16.0505 6.87627 16.0505H13.2294C14.7832 16.0505 16.043 14.7907 16.043 13.2365V6.88337C16.043 5.32954 14.7832 4.06982 13.2294 4.06982ZM10.0528 13.8703C7.94812 13.8703 6.24252 12.1647 6.24252 10.0599C6.24252 7.95562 7.94812 6.24961 10.0528 6.24961C12.1572 6.24961 13.8632 7.95562 13.8632 10.0599C13.8632 12.1647 12.1572 13.8703 10.0528 13.8703ZM13.9903 6.99248C13.4997 6.99248 13.1027 6.595 13.1027 6.10481C13.1027 5.61463 13.4997 5.21715 13.9903 5.21715C14.4805 5.21715 14.878 5.61463 14.878 6.10481C14.878 6.595 14.4805 6.99248 13.9903 6.99248ZM10.0528 7.59014C8.68852 7.59014 7.58263 8.69603 7.58263 10.0599C7.58263 11.4243 8.68852 12.5301 10.0528 12.5301C11.4167 12.5301 12.5226 11.4243 12.5226 10.0599C12.5226 8.69603 11.4167 7.59014 10.0528 7.59014Z" fill="white"/>
<path d="M15.613 0H4.49218C2.04043 0 0.0526123 1.98741 0.0526123 4.43957V15.56C0.0526123 18.0122 2.04043 20 4.49218 20H15.613C18.0648 20 20.0526 18.0122 20.0526 15.56V4.43957C20.0526 1.98741 18.0648 0 15.613 0ZM17.3954 13.1276C17.3954 15.4685 15.4978 17.3665 13.1568 17.3665H6.94885C4.60786 17.3665 2.70987 15.4685 2.70987 13.1276V6.91962C2.70987 4.57862 4.60786 2.68105 6.94885 2.68105H13.1568C15.4978 2.68105 17.3954 4.57862 17.3954 6.91962V13.1276Z" fill="white"/>
</svg>
