<svg width="66" height="66" viewBox="0 0 66 66" fill="none" xmlns="http://www.w3.org/2000/svg">
<rect x="4.46156" y="4.46191" width="57.0769" height="57.0769" fill="#FFCA28"/>
<path d="M39.1154 51.9331L43.3178 49.1524C43.6471 50.1871 45.7326 52.6444 48.3669 52.6444C51.0012 52.6444 52.2243 51.2056 52.2243 50.2518C52.2243 47.6523 49.5344 46.7358 48.2424 46.2956C48.0318 46.2239 47.8583 46.1648 47.7397 46.1131C47.6789 46.0866 47.5869 46.0515 47.4688 46.0064C46.0319 45.4574 40.7305 43.432 40.7305 37.5609C40.7305 31.0942 46.9713 30.3506 48.3826 30.3506C49.3059 30.3506 53.7453 30.4638 55.9563 34.6186L51.8793 37.4639C50.9855 35.6533 49.5005 35.0551 48.5864 35.0551C46.3284 35.0551 45.858 36.7105 45.858 37.4639C45.858 39.5783 48.3113 40.5259 50.3827 41.3261C50.9246 41.5354 51.4404 41.7347 51.8793 41.9421C54.1373 43.0091 57.4616 44.7551 57.4616 50.2518C57.4616 53.0049 55.1524 57.4621 49.3391 57.4621C41.5302 57.4621 39.4604 52.7738 39.1154 51.9331Z" fill="#3E3E3E"/>
<path d="M18.7308 52.4853L23.1108 49.706C23.454 50.7402 24.7876 52.6469 26.7227 52.6469C28.6577 52.6469 29.6481 50.6594 29.6481 49.706V30.9621H35.0348V49.706C35.122 52.2914 33.6881 57.4621 27.36 57.4621C21.5418 57.4621 19.123 54.0042 18.7308 52.4853Z" fill="#3E3E3E"/>
</svg>
