<svg width="22" height="20" viewBox="0 0 22 20" fill="none" xmlns="http://www.w3.org/2000/svg">
<path d="M19.4904 0.012207H1.55057C0.696293 0.012207 0 0.656651 0 1.45665V18.5567C0 19.3567 0.696293 20.0011 1.55057 20.0011H19.4904C20.3505 20.0011 21.0526 19.3567 21.0526 18.5567V1.45665C21.0526 0.656651 20.3505 0.012207 19.4904 0.012207ZM6.24323 17.0455H3.11869V7.50665H6.24323V17.0455ZM4.68096 6.20665C3.68041 6.20665 2.87294 5.43443 2.87294 4.48443C2.87294 3.53443 3.68041 2.76776 4.68096 2.76776C5.68152 2.76776 6.49484 3.53443 6.49484 4.48443C6.49484 5.43443 5.68152 6.20665 4.68096 6.20665ZM17.9398 17.0455H14.8152V12.4067C14.8152 11.3011 14.7977 9.87887 13.1945 9.87887C11.5678 9.87887 11.3221 11.0844 11.3221 12.3289V17.0455H8.20339V7.50665H11.1934V8.81221H11.2402C11.6556 8.06221 12.6737 7.26776 14.195 7.26776C17.3547 7.26776 17.9398 9.24554 17.9398 11.8122V17.0455Z" fill="white"/>
</svg>
