<svg width="44" height="53" viewBox="0 0 44 53" fill="none" xmlns="http://www.w3.org/2000/svg">
<g clip-path="url(#clip0_503_5151)">
<path d="M9.31215 41.641C8.97707 41.152 8.68366 40.4927 8.44562 39.704C4.14782 34.9617 7.46803 27.9831 10.7522 23.2442C11.067 22.7375 11.41 22.2479 11.7827 21.7798C14.2883 18.7338 14.9367 16.6141 15.1294 13.7462C15.1524 13.2123 15.1072 12.5055 15.0553 11.6936C14.7902 7.54747 14.3498 0.658882 21.9103 0.0481638C31.361 -0.715327 30.5912 7.77608 30.5214 12.7545C30.5185 12.9605 30.5157 13.1611 30.5136 13.3543C30.4879 16.3554 32.0887 18.4102 33.7596 20.555C34.3698 21.3382 34.9893 22.1334 35.5423 22.991C35.5588 23.0164 35.5751 23.0419 35.5914 23.0675C38.5112 27.1875 41.3936 33.3362 37.3814 39.1683C36.8177 41.1591 35.9637 42.9863 34.8239 44.4733C30.7316 49.742 27.0944 49.2071 24.2538 48.7894C23.3971 48.6634 22.6128 48.5481 21.9103 48.6058C20.7435 48.6754 19.8084 48.8601 19.0006 49.0196C15.878 49.6363 14.6576 49.8773 9.31215 41.641Z" fill="black"/>
<path d="M27.2546 4.69727C27.1669 7.13762 24.5211 9.25734 21.3497 9.45328C18.1782 9.64923 15.6901 7.7967 15.7778 5.35634C15.8654 2.91599 18.5112 0.796267 21.6826 0.600326C24.8541 0.422198 27.3422 2.25692 27.2546 4.69727Z" fill="url(#paint0_linear_503_5151)"/>
<path fill-rule="evenodd" clip-rule="evenodd" d="M21.5074 10.629C21.5328 11.956 22.154 13.0874 23.0263 13.5984C20.1803 13.349 16.6539 14.3671 16.6539 16.2934C16.61 19.5524 14.7561 23.6071 13.4218 26.5256C13.1589 27.1005 12.9162 27.6314 12.7115 28.1033C11.8853 30.1048 11.3898 32.2452 11.3311 34.3448C9.14313 31.394 10.7329 27.6087 11.5901 25.9658C12.7308 23.8037 12.7088 23.5339 12.2657 24.0406C10.5675 26.8663 7.36906 32.5418 11.3741 35.9513C11.5013 37.4738 11.8804 38.949 12.5538 40.3051C17.9155 50.8859 27.9555 46.5396 31.2671 41.0532C31.7077 40.2732 32.0639 39.5185 32.3468 38.7894C32.5125 38.8915 32.6901 38.9705 32.8791 39.0226C34.5437 39.5035 37.0318 37.6688 37.6275 36.5288C38.3459 35.0147 37.61 33.9815 35.157 32.7525C35.0319 32.6918 34.9083 32.6349 34.7862 32.5818C35.7271 28.7057 33.1346 24.6751 31.2829 22.9651C30.9376 22.8819 30.889 23.0734 31.4248 23.5967C32.591 24.69 35.1273 28.5886 33.7551 32.2169C33.529 32.1574 33.3116 32.1156 33.1042 32.0926C32.6827 29.6171 31.5586 27.6913 30.7731 26.3455C30.5951 26.0406 30.4345 25.7654 30.3034 25.5205C30.0389 25.0261 29.7227 24.5143 29.3874 23.9714C28.0952 21.8794 26.5187 19.3271 26.5187 15.5453C26.3211 14.7132 25.5186 14.1584 24.4503 13.852C25.6902 13.6073 26.621 12.19 26.5888 10.4865C26.5537 8.65174 25.3798 7.19109 23.978 7.22671C22.5763 7.26234 21.4549 8.79424 21.5074 10.629ZM22.6639 11.0387C22.6463 12.054 23.137 12.8734 23.7853 12.8734C24.4161 12.8734 24.9592 12.054 24.9768 11.0565C24.9943 10.0411 24.5037 9.22175 23.8553 9.22175C23.2071 9.22175 22.6814 10.0411 22.6639 11.0387Z" fill="url(#paint1_linear_503_5151)"/>
<path fill-rule="evenodd" clip-rule="evenodd" d="M18.0031 13.479C19.0193 13.4256 19.7553 12.0896 19.6677 10.5043C19.58 8.91892 18.6864 7.68984 17.6702 7.74328C16.6539 7.79672 15.918 9.13268 16.0056 10.718C16.0932 12.3034 16.9868 13.5324 18.0031 13.479ZM18.6163 11.0565C18.704 11.8937 18.3886 12.6062 17.933 12.6774C17.4774 12.7309 17.0394 12.1074 16.9518 11.2702C16.8641 10.433 17.1795 9.7205 17.6351 9.64925C18.0907 9.59581 18.5287 10.2193 18.6163 11.0565Z" fill="url(#paint2_linear_503_5151)"/>
<path d="M22.9267 10.4688C22.8742 11.0388 23.137 11.5019 23.505 11.5375C23.8729 11.5732 24.2234 11.1278 24.2759 10.5756C24.3285 10.0056 24.0657 9.54251 23.6977 9.50688C23.3297 9.47126 22.9793 9.91658 22.9267 10.4688Z" fill="url(#paint3_linear_503_5151)"/>
<path d="M18.2309 10.6111C18.2834 11.0742 18.0907 11.4839 17.8103 11.5195C17.53 11.5551 17.2672 11.1989 17.2146 10.7179C17.162 10.2548 17.3548 9.8451 17.6351 9.80948C17.9155 9.77385 18.1783 10.1479 18.2309 10.6111Z" fill="url(#paint4_linear_503_5151)"/>
<path d="M29.0068 29.1901C29.0068 32.3251 26.0456 36.3865 20.9642 36.3508C15.7252 36.3865 13.4999 32.3251 13.4999 29.1901C13.4999 26.055 16.9693 23.5078 21.2446 23.5078C25.5374 23.5256 29.0068 26.055 29.0068 29.1901Z" fill="url(#paint5_linear_503_5151)"/>
<path d="M26.2383 19.3396C26.1857 22.5816 24.1006 23.3475 21.4724 23.3475C18.8441 23.3475 16.9342 22.8666 16.7064 19.3396C16.7064 17.1308 18.8441 15.8483 21.4724 15.8483C24.1006 15.8305 26.2383 17.113 26.2383 19.3396Z" fill="url(#paint6_linear_503_5151)"/>
<path d="M10.346 24.3269C12.0631 21.6728 15.6901 17.5937 11.0293 24.8969C7.24463 30.9177 9.6276 34.783 10.8541 35.8518C14.3935 39.0581 14.2534 41.2135 11.4674 39.5212C5.49244 35.9052 6.7365 29.8133 10.346 24.3269Z" fill="url(#paint7_linear_503_5151)"/>
<path d="M35.2095 25.4136C33.7201 22.2964 28.9892 14.3875 35.4372 23.5789C41.307 31.8975 37.1894 37.6867 36.4535 38.2567C35.7176 38.8267 33.247 39.9845 33.9654 37.9717C34.7013 35.9588 38.3459 32.1469 35.2095 25.4136Z" fill="url(#paint8_linear_503_5151)"/>
<path d="M9.04951 49.995C5.12462 47.8753 -0.56997 50.4047 1.49761 44.669C1.91813 43.3686 0.884341 41.4092 1.55017 40.1445C2.33865 38.5948 4.03827 38.9332 5.05454 37.9001C6.05328 36.8313 6.68407 34.9788 8.5589 35.2638C10.4162 35.5488 11.6603 37.8645 12.9569 40.7145C13.9206 42.7452 17.3198 45.613 17.092 47.8931C16.8117 51.3844 12.9043 52.0435 9.04951 49.995Z" fill="url(#paint9_linear_503_5151)"/>
<path fill-rule="evenodd" clip-rule="evenodd" d="M5.48669 38.3177C4.53223 39.339 2.77927 39.0942 2.07574 40.4306C1.62391 41.2889 2.11758 42.6079 2.18419 43.5478C2.26648 44.709 1.28264 46.3543 1.78366 47.346C2.34635 48.4597 4.88835 48.3152 6.00583 48.4749C8.76438 48.8692 13.3235 52.3623 15.818 49.5746C18.2566 46.8494 13.5694 43.4006 12.4197 40.978C11.672 39.3345 10.5531 36.1834 8.47015 35.8633C7.00205 35.6405 6.33321 37.4118 5.48669 38.3177ZM8.64775 34.6645C11.241 35.0624 12.5387 38.352 13.4958 40.4555C14.9485 43.5059 19.9266 46.7847 16.7001 50.3905C13.7699 53.6652 9.14373 50.1477 5.8398 49.6755C4.18937 49.4396 1.58638 49.609 0.722842 47.8999C-0.01962 46.4303 1.0985 45.0995 0.994711 43.6349C0.906275 42.3871 0.401533 41.047 1.02228 39.8624C1.87204 38.1974 3.51253 38.6005 4.62754 37.4768C5.81156 36.204 6.5212 34.3412 8.64775 34.6645Z" fill="#E68C3F"/>
<path d="M36.2608 49.0156C39.1344 45.4708 45.5299 46.2012 41.2195 41.3383C40.3084 40.2873 40.5887 38.0429 39.4673 37.081C38.1532 35.9054 36.6989 36.8673 35.3672 36.2616C34.0356 35.6026 32.6338 34.3378 31.0043 35.2285C29.3748 36.1369 29.1995 38.4882 29.0418 41.5877C28.9017 43.8143 26.9042 47.5371 27.973 49.5856C29.5149 52.7563 33.5274 52.3288 36.2608 49.0156Z" fill="url(#paint10_linear_503_5151)"/>
<path fill-rule="evenodd" clip-rule="evenodd" d="M37.4087 35.8514C38.1455 35.8325 39.0279 35.883 39.8567 36.6217C40.8873 37.5108 40.8974 38.9622 41.2861 40.1774C41.7463 41.6164 43.3589 42.4385 43.2625 44.1259C43.1049 46.8845 38.2223 47.549 36.7193 49.403C35.2753 51.1534 33.4497 52.1957 31.7174 52.3362C29.0903 52.5493 26.9202 50.3878 27.074 47.7488C27.1985 45.6125 28.3109 43.6715 28.4464 41.5523C28.5245 40.0177 28.6089 38.5949 28.8924 37.4395C29.1789 36.2721 29.6952 35.2667 30.7174 34.6968C32.9565 33.473 35.1194 35.9101 37.4087 35.8514ZM31.2888 35.7611C30.6827 36.0999 30.2973 36.7241 30.0496 37.7331C29.799 38.7544 29.7164 40.0629 29.6369 41.6262C29.5031 43.7505 28.3887 45.6899 28.2646 47.8205C28.1539 49.7206 29.6454 51.2879 31.6226 51.1276C32.9649 51.0187 34.5131 50.1894 35.8022 48.6278C36.954 47.2082 41.967 45.8899 42.0718 44.0556C42.1403 42.8578 40.5299 41.7343 40.1518 40.5523C39.8559 39.6271 39.8402 38.194 39.0827 37.5442C38.5986 37.1112 38.0892 37.0468 37.4388 37.0635C35.5537 37.1118 33.0387 34.8071 31.2888 35.7611Z" fill="#E68C3F"/>
<path d="M35.0166 44.2771C39.4672 37.5973 36.1556 37.6507 35.0342 37.1341C33.9128 36.5998 32.7388 35.5488 31.4247 36.2791C30.1105 37.0273 30.0404 38.951 30.0054 41.4805C29.9528 43.2974 28.4635 46.3434 29.3571 48.0356C30.4434 50.0128 33.0717 47.1449 35.0166 44.2771Z" fill="url(#paint11_linear_503_5151)"/>
<path d="M8.13829 45.2391C1.48 40.8572 4.59888 39.3609 5.59763 38.6662C6.80663 37.7756 6.82416 36.0655 8.31351 36.2259C9.80287 36.3862 10.679 38.2565 11.6777 40.5722C12.4136 42.2288 14.9718 44.4376 14.7791 46.3435C14.5338 48.5879 11.0119 47.1095 8.13829 45.2391Z" fill="url(#paint12_linear_503_5151)"/>
<path d="M37.242 36.4754C36.7163 37.4017 34.5786 38.8623 33.1594 38.4704C31.7051 38.0964 31.0392 36.0123 31.3371 34.4448C31.5999 32.6635 33.1594 32.5744 35.1218 33.465C37.2069 34.4269 37.8552 35.2463 37.242 36.4754Z" fill="black"/>
<path d="M35.8051 35.9585C35.4721 36.5997 34.0704 37.6151 33.0892 37.3479C32.1079 37.0807 31.6173 35.6378 31.775 34.5513C31.9152 33.3222 32.9665 33.2509 34.2982 33.8566C35.735 34.5335 36.1905 35.1035 35.8051 35.9585Z" fill="url(#paint13_linear_503_5151)"/>
<path d="M17.6876 12.7132C18.3885 12.0541 20.0881 10.0413 23.3121 12.1432C23.9079 12.5351 24.3985 12.5707 25.5374 13.0695C27.8328 14.0313 26.7464 16.347 24.2934 17.1308C23.2421 17.4692 22.2959 18.7696 20.4035 18.6449C18.774 18.5558 18.3535 17.4692 17.3547 16.8814C15.585 15.8661 15.3222 14.4945 16.2859 13.7642C17.2496 13.0338 17.6176 12.7666 17.6876 12.7132Z" fill="url(#paint14_linear_503_5151)"/>
<path fill-rule="evenodd" clip-rule="evenodd" d="M16.4997 14.0556C16.1333 14.3332 16.0166 14.7025 16.1378 15.1107C16.3865 15.9492 18.1805 17.1028 18.8674 17.6671C19.258 17.988 19.7047 18.2423 20.4266 18.2817C21.9728 18.3836 22.8314 17.2197 24.186 16.7836C25.077 16.499 26.9618 15.4111 26.3375 14.1645C25.8047 13.1007 24.0098 13.0349 23.1183 12.4487C21.5838 11.4485 20.4667 11.4556 19.6709 11.7363C18.799 12.0437 17.2895 13.457 16.4997 14.0556ZM19.4364 11.049C20.4715 10.684 21.8173 10.7364 23.5064 11.8376C24.6165 12.5678 26.3055 12.4974 26.9751 13.8344C27.8282 15.5377 25.7612 17.0427 24.401 17.4774C22.9443 17.9467 22.1307 19.1222 20.3823 19.0077C19.4758 18.9578 18.894 18.6242 18.4177 18.2329C17.4293 17.4209 15.7594 16.6494 15.3775 15.362C15.1657 14.648 15.4747 13.925 16.072 13.4724C17.0375 12.7407 18.3421 11.4349 19.4364 11.049Z" fill="#E68C3F"/>
<path fill-rule="evenodd" clip-rule="evenodd" d="M25.8106 14.5701C25.8178 14.7038 25.717 14.8181 25.5854 14.8254C23.7309 14.9283 22.4278 16.9989 20.3334 16.9989C19.1615 16.9989 18.2338 16.4457 17.5705 15.9137C17.4369 15.8064 16.2576 14.9168 16.2576 14.6902C16.2576 14.5563 16.3644 14.4477 16.4961 14.4477C16.7425 14.4477 17.4861 15.2371 17.7627 15.4589C18.3873 15.96 19.3151 16.514 20.3334 16.514C22.4068 16.514 23.6788 14.4455 25.5595 14.3412C25.691 14.3339 25.8034 14.4364 25.8106 14.5701Z" fill="#E68C3F"/>
<path d="M18.774 12.5347C19.1244 12.2141 20.2283 11.3413 21.6826 12.2319C21.998 12.4101 22.3134 12.606 22.7689 12.8732C23.6976 13.4254 23.242 14.227 22.1206 14.7257C21.6125 14.9395 20.7714 15.4026 20.1407 15.367C19.4398 15.2957 18.9667 14.8326 18.5111 14.5298C17.6526 13.9598 17.7051 13.4788 18.1081 13.1048C18.406 12.8198 18.7389 12.5526 18.774 12.5347Z" fill="url(#paint15_linear_503_5151)"/>
</g>
<defs>
<linearGradient id="paint0_linear_503_5151" x1="22.0221" y1="0.801842" x2="21.4549" y2="8.65503" gradientUnits="userSpaceOnUse">
<stop stop-color="white" stop-opacity="0.8"/>
<stop offset="1" stop-color="white" stop-opacity="0"/>
</linearGradient>
<linearGradient id="paint1_linear_503_5151" x1="13.5653" y1="43.6362" x2="9.33479" y2="29.4498" gradientUnits="userSpaceOnUse">
<stop stop-color="#FFEED7"/>
<stop offset="1" stop-color="#BDBFC2"/>
</linearGradient>
<linearGradient id="paint2_linear_503_5151" x1="13.5653" y1="43.6362" x2="9.33479" y2="29.4498" gradientUnits="userSpaceOnUse">
<stop stop-color="#FFEED7"/>
<stop offset="1" stop-color="#BDBFC2"/>
</linearGradient>
<linearGradient id="paint3_linear_503_5151" x1="23.6545" y1="9.56799" x2="23.4153" y2="11.3982" gradientUnits="userSpaceOnUse">
<stop stop-color="white" stop-opacity="0.65"/>
<stop offset="1" stop-color="white" stop-opacity="0"/>
</linearGradient>
<linearGradient id="paint4_linear_503_5151" x1="17.6772" y1="9.90101" x2="17.9346" y2="11.3827" gradientUnits="userSpaceOnUse">
<stop stop-color="white" stop-opacity="0.65"/>
<stop offset="1" stop-color="white" stop-opacity="0"/>
</linearGradient>
<linearGradient id="paint5_linear_503_5151" x1="21.2287" y1="25.2068" x2="21.2713" y2="35.667" gradientUnits="userSpaceOnUse">
<stop stop-color="white" stop-opacity="0.8"/>
<stop offset="1" stop-color="white" stop-opacity="0"/>
</linearGradient>
<linearGradient id="paint6_linear_503_5151" x1="21.4654" y1="18.6474" x2="21.5126" y2="22.8066" gradientUnits="userSpaceOnUse">
<stop stop-color="white" stop-opacity="0.65"/>
<stop offset="1" stop-color="white" stop-opacity="0"/>
</linearGradient>
<linearGradient id="paint7_linear_503_5151" x1="10.4165" y1="21.2142" x2="10.4165" y2="36.4775" gradientUnits="userSpaceOnUse">
<stop stop-color="white" stop-opacity="0.65"/>
<stop offset="1" stop-color="white" stop-opacity="0"/>
</linearGradient>
<linearGradient id="paint8_linear_503_5151" x1="35.3296" y1="19.7236" x2="35.3238" y2="33.5146" gradientUnits="userSpaceOnUse">
<stop stop-color="white" stop-opacity="0.65"/>
<stop offset="1" stop-color="white" stop-opacity="0"/>
</linearGradient>
<linearGradient id="paint9_linear_503_5151" x1="9.6371" y1="43.0209" x2="7.34184" y2="50.8583" gradientUnits="userSpaceOnUse">
<stop stop-color="#FFA63F"/>
<stop offset="1" stop-color="#FFFF00"/>
</linearGradient>
<linearGradient id="paint10_linear_503_5151" x1="32.2499" y1="40.6459" x2="38.4465" y2="49.2814" gradientUnits="userSpaceOnUse">
<stop stop-color="#FFA63F"/>
<stop offset="1" stop-color="#FFFF00"/>
</linearGradient>
<linearGradient id="paint11_linear_503_5151" x1="33.958" y1="33.8497" x2="31.8196" y2="44.1472" gradientUnits="userSpaceOnUse">
<stop stop-color="white" stop-opacity="0.65"/>
<stop offset="1" stop-color="white" stop-opacity="0"/>
</linearGradient>
<linearGradient id="paint12_linear_503_5151" x1="9.15009" y1="36.3915" x2="9.57332" y2="47.9598" gradientUnits="userSpaceOnUse">
<stop stop-color="white" stop-opacity="0.65"/>
<stop offset="1" stop-color="white" stop-opacity="0"/>
</linearGradient>
<linearGradient id="paint13_linear_503_5151" x1="33.5707" y1="33.6624" x2="34.0662" y2="37.1219" gradientUnits="userSpaceOnUse">
<stop stop-color="white" stop-opacity="0.65"/>
<stop offset="1" stop-color="white" stop-opacity="0"/>
</linearGradient>
<linearGradient id="paint14_linear_503_5151" x1="21.2373" y1="12.5206" x2="21.2786" y2="18.6079" gradientUnits="userSpaceOnUse">
<stop stop-color="#FFA63F"/>
<stop offset="1" stop-color="#FFFF00"/>
</linearGradient>
<linearGradient id="paint15_linear_503_5151" x1="20.5567" y1="11.9447" x2="20.5455" y2="15.1634" gradientUnits="userSpaceOnUse">
<stop stop-color="white" stop-opacity="0.65"/>
<stop offset="1" stop-color="white" stop-opacity="0"/>
</linearGradient>
<clipPath id="clip0_503_5151">
<rect width="42.8" height="53" fill="white" transform="translate(0.466675)"/>
</clipPath>
</defs>
</svg>
