<svg width="43" height="44" viewBox="0 0 43 44" fill="none" xmlns="http://www.w3.org/2000/svg">
<path d="M17.6063 0.266724C27.3335 0.266724 35.2137 8.17723 35.2137 17.9327C35.2187 21.1466 34.3456 24.3003 32.6893 27.0512L41.2258 35.6164L41.1961 35.6462C42.1072 36.5212 42.6668 37.7634 42.6668 39.1673C42.6674 41.8796 40.5138 44.0006 37.8134 44C36.434 43.9995 35.2004 43.4458 34.3201 42.5448L34.2986 42.5663L25.4909 33.7284C23.0443 34.9609 20.344 35.6015 17.6063 35.5987C7.87862 35.5987 0.000141144 27.6893 0.000141144 17.9327C0.000141144 8.17723 7.87917 0.266724 17.6063 0.266724ZM17.4996 28.6521C23.5794 28.6521 28.5044 23.709 28.5044 17.6109C28.5044 11.5139 23.5794 6.56962 17.4996 6.56962C11.4198 6.56962 6.49593 11.5133 6.49593 17.6109C6.49538 23.709 11.4198 28.6521 17.4996 28.6521Z" fill="url(#paint0_linear_201_2798)"/>
<defs>
<linearGradient id="paint0_linear_201_2798" x2="42.6668" y1="44" x1="3.29851" y2="7.57051" gradientUnits="userSpaceOnUse">
<stop stop-color="#7B00DB"/>
<stop offset="1" stop-color="#ED1F78"/>
</linearGradient>
</defs>
</svg>
