<svg width="77" height="77" viewBox="0 0 77 77" fill="none" xmlns="http://www.w3.org/2000/svg">
<path d="M38.5001 4.8125C19.9194 4.8125 4.81262 19.9192 4.81262 38.5C4.81262 57.0808 19.9194 72.1875 38.5001 72.1875C57.0809 72.1875 72.1877 57.0808 72.1877 38.5C72.1877 19.9192 57.0809 4.8125 38.5001 4.8125Z" fill="#FDDD4C"/>
<path d="M23.747 47.2832C23.0104 46.168 24.8631 44.4802 24.1096 43.0631C23.6752 42.2457 22.9651 41.7365 22.1124 41.6295C21.294 41.5268 20.451 41.8264 19.9136 42.4119C19.0652 43.3352 18.9333 44.5919 19.0974 45.0366C19.1574 45.1996 19.2518 45.2441 19.3194 45.2536C19.7815 45.3144 20.0415 44.1284 20.2011 43.8815C20.6422 43.2006 21.6438 42.9946 22.3355 43.4421C23.6471 44.2904 22.5098 45.6615 22.6079 46.8195C22.7034 47.9471 23.4059 48.4002 24.0366 48.4478C24.6501 48.4711 25.0792 48.1302 25.1875 47.8814C25.4472 47.2875 24.3531 48.2008 23.747 47.2832Z" fill="black"/>
<path d="M51.1515 37.0463C50.8075 36.9986 50.4314 36.9998 50.0403 37.0463C49.7432 36.6714 49.4772 36.0647 49.327 35.3565C49.06 34.0966 49.0878 33.1839 49.8333 33.0654C50.5787 32.9468 50.9391 33.7091 51.2062 34.969C51.3853 35.816 51.351 36.5942 51.1515 37.0463Z" fill="black"/>
<path d="M42.9869 37.7958C43.0163 38.0812 43.0268 38.3699 43.0184 38.6357C43.7397 38.678 44.2506 39.0206 44.3866 39.2379C44.4563 39.3502 44.4284 39.4232 44.4059 39.4571C44.3313 39.5733 44.1713 39.5553 43.8361 39.5177C43.5433 39.4848 43.228 39.4559 42.9003 39.471C42.722 40.0178 42.1933 40.069 41.8218 39.6646C41.5623 39.7437 41.0526 40.0692 40.9007 39.7154C40.8994 39.5399 41.0829 39.2848 41.4153 39.0595C41.1884 38.6267 41.0364 38.1633 40.9465 37.6835C40.4753 37.7684 40.0514 37.9004 39.7191 38.0039C39.5631 38.0524 38.9459 38.3312 38.8736 38.017C38.8253 37.8 39.1632 37.4421 39.5203 37.1838C39.9194 36.9005 40.3622 36.6991 40.8212 36.5829C40.8113 35.8995 40.9857 35.4227 41.4821 35.3438C42.0978 35.2458 42.4793 35.7198 42.7433 36.5975C43.4873 36.8042 44.2303 37.3167 44.5583 37.8466C44.6859 38.052 44.7106 38.2108 44.628 38.2944C44.4218 38.5082 43.2795 37.8886 42.9869 37.7958Z" fill="black"/>
<path d="M47.879 40.8673C48.3509 41.0959 48.8701 41.006 49.0395 40.6661C49.209 40.3262 48.9634 39.8657 48.4915 39.637C48.0195 39.4083 47.5004 39.4983 47.3309 39.8382C47.1614 40.178 47.4071 40.6386 47.879 40.8673Z" fill="black"/>
<path d="M50.2021 39.1796C50.2107 38.6598 50.5293 38.2447 50.9122 38.2511C51.2951 38.2585 51.5986 38.6841 51.5901 39.2029C51.5815 39.7217 51.2629 40.1367 50.88 40.1304C50.4971 40.124 50.1936 39.6984 50.2021 39.1796Z" fill="black"/>
<path fill-rule="evenodd" clip-rule="evenodd" d="M60.5859 45.5459C60.5934 45.5724 60.5828 45.535 60.5859 45.5459C61.3549 45.5459 62.5627 46.4183 62.5627 48.5263C62.5627 50.6236 61.681 52.9995 61.4729 53.5267C58.297 61.0396 50.7171 65.2216 41.688 64.9569C33.2704 64.7102 26.0916 60.326 22.95 53.1784C21.0505 53.1805 19.0919 52.3557 17.6032 51.0535C16.034 49.6813 15.0665 47.9058 14.8778 46.0541C14.7308 44.6121 14.9099 43.2706 15.3679 42.1007L13.6035 40.6248C5.52914 33.8954 30.7831 6.18802 38.8596 13.1419C38.9004 13.1768 41.6076 15.7983 41.614 15.8046C45.5084 14.1725 55.9427 11.0649 55.9545 18.299C55.9588 20.7013 54.4078 23.5028 51.9226 26.0448C54.7947 28.6739 54.0373 32.4085 54.4947 35.8351L55.4922 36.1082C57.3939 36.6344 58.7464 37.3364 59.4082 38.0224C60.07 38.7074 60.3982 39.3713 60.5172 40.1494C60.6288 40.7773 60.6138 41.8858 59.775 43.1256C60.077 43.9253 60.3527 44.7227 60.5859 45.5459ZM22.8074 51.2292C23.0895 51.2356 23.3694 51.2176 23.644 51.171C26.5947 50.6744 27.3669 47.5109 26.881 44.4045C26.3319 40.8969 23.9282 39.6603 22.2968 39.5724C21.8431 39.5491 21.4216 39.5894 21.0741 39.6582C18.162 40.2373 16.5177 42.683 16.8417 45.8593C17.1345 48.7338 20.0798 51.1572 22.8074 51.2292ZM16.2121 40.52C17.1892 39.1193 18.7863 38.1061 20.5989 37.7577C22.9061 31.6445 26.7588 26.012 31.8578 22.1359C35.6419 19.02 39.7231 16.785 39.7231 16.785C39.7231 16.785 37.5254 14.2694 36.8614 14.0842C32.7781 12.9958 23.9593 18.9989 18.3283 26.931C16.0501 30.1401 12.7884 35.8234 14.3479 38.7466C14.5399 39.1087 15.6286 40.0393 16.2121 40.52ZM49.3173 49.8253C49.3238 49.891 49.283 49.9587 49.224 49.9831C49.224 49.9831 45.943 51.4897 40.7313 49.8984C40.9187 51.4606 42.8132 52.0526 44.1368 52.2668C50.5948 53.3637 56.6323 49.7184 57.9913 48.8005C58.2247 48.6429 57.9885 49.048 57.9463 49.1075C56.2827 51.226 51.81 53.6792 45.9913 53.6781C43.4535 53.677 40.9169 52.7951 39.9859 51.4389C38.5411 49.3351 39.914 46.2637 42.3219 46.5834C46.3921 47.0371 50.5648 46.6963 54.3327 44.9699C57.618 43.4644 58.859 41.8085 58.6724 40.4671C58.383 38.3881 55.3007 38.0631 53.7428 37.5576C53.0649 37.3364 52.7303 37.1595 52.6541 35.9007C52.6209 35.3512 52.5244 33.4338 52.489 32.6408C52.4268 31.2528 52.2573 29.3545 51.0646 28.571C50.7535 28.3667 50.4081 28.2682 50.0445 28.2491C49.7546 28.2353 49.5827 28.2751 49.4903 28.2965C49.4695 28.3013 49.4528 28.3052 49.4396 28.3074C48.7956 28.4155 48.4009 28.7413 47.9355 29.1255C47.9087 29.1477 47.8817 29.17 47.8543 29.1925C46.3667 30.4164 45.1107 30.6165 43.7131 30.5572C43.2778 30.539 42.8292 30.4955 42.356 30.4497C41.9207 30.4075 41.4647 30.3633 40.9791 30.3349L40.3859 30.301C38.0456 30.1824 35.5357 32.1771 35.1185 35.0103C34.6523 38.1727 36.42 40.1097 37.5695 41.3695C37.8536 41.6808 38.0999 41.9507 38.2654 42.1875C38.3716 42.3305 38.495 42.5316 38.495 42.7233C38.495 42.9519 38.3448 43.133 38.1979 43.2876C35.8103 45.711 35.0466 49.5617 35.9465 52.7708C36.0591 53.171 36.2018 53.5542 36.3702 53.9206C38.481 58.7897 45.0302 61.0576 51.4271 58.9951C55.9104 57.5495 59.8715 54.0565 60.6781 49.2377C60.8701 47.982 60.588 47.4971 60.204 47.2632C59.7975 47.0165 59.3106 47.1022 59.3106 47.1022C59.3106 47.1022 59.0886 45.602 58.46 44.2383C56.5948 45.6909 54.1944 46.7116 52.3667 47.2293C49.4384 48.0585 46.2753 48.3814 43.2493 47.9903C42.022 47.8317 41.1974 47.7252 40.8439 48.8587C44.8801 50.3176 49.1522 49.693 49.1522 49.693C49.2347 49.6845 49.3087 49.7438 49.3173 49.8253ZM37.6723 21.5134C35.4649 22.6282 33.0001 24.6134 30.9987 26.8971C30.9279 26.9786 31.033 27.0909 31.1199 27.0284C32.8489 25.7865 35.2193 24.6325 38.3244 23.885C41.8028 23.0475 45.1514 23.399 47.1968 23.8617C47.2998 23.885 47.3642 23.7103 47.273 23.6595C45.9215 22.9109 43.8472 22.4027 42.3756 22.3921C42.3037 22.3911 42.263 22.3085 42.3059 22.2513C42.5601 21.9136 42.9086 21.5801 43.2272 21.3387C43.298 21.2836 43.2551 21.1703 43.165 21.1756C41.3344 21.2866 37.1532 23.1931 37.1682 23.1237C37.2754 22.6155 37.6133 21.9443 37.7881 21.6309C37.83 21.5568 37.7485 21.4753 37.6723 21.5134Z" fill="black"/>
</svg>
