<svg width="20" height="19" viewBox="0 0 20 19" fill="none" xmlns="http://www.w3.org/2000/svg">
<path d="M18.9 12.8385C17.5333 12.8385 16.2111 12.6311 14.9778 12.2578C14.5889 12.1333 14.1556 12.2267 13.8556 12.5067L12.1111 14.5496C8.96667 13.1496 6.02222 10.5052 4.45556 7.46667L6.62222 5.74518C6.92222 5.45481 7.01111 5.05037 6.88889 4.68741C6.47778 3.5363 6.26667 2.30222 6.26667 1.02667C6.26667 0.466667 5.76667 0 5.16667 0H1.32222C0.722222 0 0 0.248889 0 1.02667C0 10.6607 8.58889 18.6667 18.9 18.6667C19.6889 18.6667 20 18.0133 20 17.443V13.8652C20 13.3052 19.5 12.8385 18.9 12.8385Z" fill="#ED1F78"/>
</svg>
