<svg width="47" height="47" viewBox="0 0 47 47" fill="none" xmlns="http://www.w3.org/2000/svg">
<path d="M31.9303 22.6136L34.8418 25.5251L31.2137 29.1532C30.9449 29.4219 30.9449 29.6907 31.2137 29.9594L31.9751 30.7209C32.2439 30.9897 32.5126 30.9897 32.7814 30.7209L36.4095 27.0928L42.0084 32.6917L38.3803 36.3199C38.1116 36.5886 38.1116 36.8424 38.3803 37.0813L39.1418 37.8876C39.4105 38.1563 39.6793 38.1563 39.948 37.8876L43.5762 34.2594L46.398 37.0813C46.6668 37.3501 46.8011 37.6785 46.8011 38.0667C46.8011 38.4549 46.6668 38.7983 46.398 39.097L39.2314 46.2636C38.9328 46.5324 38.5894 46.6667 38.2012 46.6667C37.813 46.6667 37.4845 46.5324 37.2157 46.2636L22.7481 31.7959L14.3273 40.2167C13.8495 40.6945 13.2672 40.9334 12.5804 40.9334C11.8936 40.9334 11.3113 40.6945 10.8335 40.2167L7.42935 36.7678C6.95157 36.29 6.71268 35.7152 6.71268 35.0433C6.71268 34.3714 6.95157 33.7966 7.42935 33.3188L15.8502 24.898L1.33769 10.3855C1.06895 10.1167 0.93457 9.78825 0.93457 9.40005C0.93457 9.01186 1.06895 8.68339 1.33769 8.41464L8.50435 1.20317C8.80296 0.934424 9.14636 0.800049 9.53455 0.800049C9.92275 0.800049 10.2512 0.934424 10.52 1.20317L13.3418 4.02505L9.71372 7.65318C9.44497 7.92193 9.44497 8.19068 9.71372 8.45943L10.4752 9.22089C10.7439 9.48964 11.0127 9.48964 11.2814 9.22089L14.9095 5.59276L20.5085 11.1917L16.8804 14.8199C16.6116 15.0886 16.6116 15.3574 16.8804 15.6261L17.6418 16.3876C17.9106 16.6563 18.1793 16.6563 18.4481 16.3876L22.0762 12.7594L24.9876 15.7157L39.1866 1.51672C39.6644 1.03894 40.2392 0.800049 40.9111 0.800049C41.5829 0.800049 42.1578 1.03894 42.6355 1.51672L46.0845 4.96568C46.5623 5.44345 46.8011 6.01828 46.8011 6.69016C46.8011 7.36203 46.5623 7.93686 46.0845 8.41464L31.9303 22.6136ZM3.89081 36.9917C3.95054 37.2306 4.05505 37.4247 4.20436 37.574L10.0273 43.397C10.1766 43.5463 10.3707 43.6508 10.6096 43.7105C10.4602 44.0091 10.3408 44.1883 10.2512 44.248L2.3679 46.6667C1.65124 46.6667 1.23318 46.607 1.11374 46.4876C0.994292 46.3681 0.93457 45.9501 0.93457 45.2334L3.35332 37.3501C3.41304 37.2904 3.5922 37.1709 3.89081 36.9917Z" fill="url(#paint0_linear_201_2806)"/>
<defs>
<linearGradient id="paint0_linear_201_2806" x1="0.93457" y1="46.6667" x2="42.2898" y2="7.44206" gradientUnits="userSpaceOnUse">
<stop stop-color="#7B00DB"/>
<stop offset="1" stop-color="#ED1F78"/>
</linearGradient>
</defs>
</svg>
