<svg width="151" height="34" viewBox="0 0 151 34" fill="none" xmlns="http://www.w3.org/2000/svg">
<path d="M24.0514 31.7872C25.0821 30.9412 25.1957 29.4618 24.3051 28.4827C23.4145 27.5037 21.857 27.3958 20.8264 28.2418C19.7957 29.0878 19.6822 30.5672 20.5727 31.5462C21.4633 32.5253 23.0208 32.6331 24.0514 31.7872Z" fill="#ED1F78"/>
<path d="M33.5503 28.212L32.1749 27.2839L17.889 17.6785L15.3184 30.7891C15.2683 31.0138 15.2662 31.2457 15.312 31.4712C15.3578 31.6967 15.4507 31.9113 15.5852 32.1021C15.7197 32.293 15.893 32.4564 16.095 32.5827C16.297 32.7089 16.5235 32.7955 16.7612 32.8373C16.999 32.8791 17.2432 32.8753 17.4793 32.8261C17.7155 32.7768 17.9389 32.6832 18.1364 32.5507C18.3339 32.4182 18.5014 32.2494 18.6292 32.0544C18.757 31.8594 18.8423 31.6421 18.8803 31.4153L20.3032 24.1752L30.2302 32.2848C30.5064 32.5257 30.8322 32.7097 31.1869 32.825C31.5417 32.9403 31.9178 32.9845 32.2914 32.9548C32.6651 32.9251 33.0282 32.8222 33.3578 32.6525C33.6875 32.4828 33.9765 32.25 34.2067 31.9689C34.4369 31.6877 34.6033 31.3643 34.6953 31.019C34.7873 30.6737 34.8029 30.3141 34.7413 29.9628C34.6796 29.6115 34.5419 29.2761 34.3369 28.9779C34.1319 28.6796 33.8641 28.425 33.5503 28.23V28.212Z" fill="#ED1F78"/>
<path d="M3.58674 23.5512C4.92265 23.2986 5.79 22.0651 5.52403 20.7961C5.25806 19.5271 3.95948 18.7032 2.62358 18.9558C1.28768 19.2085 0.420323 20.442 0.686293 21.711C0.952264 22.98 2.25084 23.8039 3.58674 23.5512Z" fill="#ED1F78"/>
<path d="M2.28939 14.4842C1.81641 14.4012 1.32808 14.5 0.931819 14.759C0.535556 15.0179 0.263823 15.4158 0.176398 15.8651C0.0889731 16.3144 0.193018 16.7782 0.465643 17.1547C0.738268 17.5311 1.15714 17.7892 1.63012 17.8722L9.25206 19.2238L0.714725 28.6535C0.461114 28.9159 0.267503 29.2253 0.146112 29.5623C0.0247217 29.8993 -0.0218137 30.2565 0.00944317 30.6114C0.0407 30.9664 0.14907 31.3113 0.327715 31.6244C0.50636 31.9376 0.7514 32.2121 1.04737 32.4308C1.34334 32.6495 1.68382 32.8075 2.04731 32.8949C2.4108 32.9823 2.78942 32.9971 3.15926 32.9386C3.52911 32.88 3.88215 32.7492 4.19612 32.5545C4.51008 32.3598 4.77815 32.1053 4.98339 31.8073L5.96045 30.4962L16.0914 16.9306L2.28939 14.4842Z" fill="#ED1F78"/>
<path d="M13.146 5.15816C13.6062 5.00479 14.0082 4.72526 14.3012 4.35491C14.5942 3.98456 14.765 3.54001 14.792 3.07747C14.8191 2.61492 14.7012 2.15513 14.4532 1.75623C14.2052 1.35733 13.8383 1.03722 13.3988 0.836363C12.9594 0.635506 12.4671 0.562922 11.9842 0.627785C11.5013 0.692648 11.0495 0.892045 10.6859 1.20077C10.3223 1.5095 10.0632 1.9137 9.94135 2.36227C9.81952 2.81085 9.84044 3.28366 10.0014 3.72095C10.1084 4.01154 10.2747 4.27925 10.4907 4.50878C10.7066 4.7383 10.9681 4.92514 11.2602 5.05862C11.5522 5.1921 11.8691 5.26959 12.1927 5.28667C12.5163 5.30375 12.8402 5.26008 13.146 5.15816Z" fill="#ED1F78"/>
<path d="M17.0685 0.234132C16.7668 0.333356 16.4983 0.50711 16.2908 0.737531C16.0832 0.967952 15.944 1.24672 15.8875 1.54519L14.4646 8.78529L4.55176 0.689172C4.27559 0.448267 3.94984 0.264356 3.59508 0.149046C3.24032 0.0337371 2.86425 -0.0104669 2.4906 0.019224C2.11695 0.0489149 1.75384 0.151856 1.42418 0.321551C1.09452 0.491246 0.805466 0.72401 0.575267 1.00515C0.345067 1.2863 0.178718 1.60971 0.0867177 1.955C-0.00528281 2.30028 -0.020937 2.65993 0.040743 3.01124C0.102423 3.36256 0.240098 3.69792 0.445079 3.99615C0.650061 4.29439 0.917897 4.54902 1.23169 4.74399L2.60715 5.67209L16.8787 15.282L19.4494 2.17143C19.5087 1.87459 19.4845 1.56814 19.3792 1.28304C19.2738 0.997948 19.0912 0.744308 18.8496 0.547754C18.608 0.351199 18.3161 0.218694 18.0034 0.163626C17.6906 0.108559 17.3681 0.132879 17.0685 0.234132Z" fill="#ED1F78"/>
<path d="M30.8468 9.52834C30.3866 9.68202 29.9847 9.9619 29.692 10.3326C29.3992 10.7032 29.2288 11.148 29.2022 11.6107C29.1755 12.0734 29.294 12.5332 29.5425 12.9319C29.791 13.3307 30.1584 13.6505 30.5982 13.8509C31.0381 14.0513 31.5306 14.1233 32.0135 14.0578C32.4964 13.9923 32.948 13.7922 33.3113 13.4828C33.6745 13.1735 33.9329 12.7688 34.054 12.3199C34.1751 11.8711 34.1533 11.3982 33.9914 10.961C33.7744 10.375 33.3211 9.89481 32.7314 9.62613C32.1417 9.35746 31.4638 9.32228 30.8468 9.52834Z" fill="#ED1F78"/>
<path d="M33.1377 15.1014L25.5158 13.7498L34.0531 4.32013C34.3067 4.05779 34.5003 3.74837 34.6217 3.41138C34.7431 3.07439 34.7896 2.71716 34.7584 2.36223C34.7271 2.0073 34.6187 1.66238 34.4401 1.34924C34.2615 1.03609 34.0164 0.761519 33.7204 0.542852C33.4245 0.324185 33.084 0.16617 32.7205 0.0787787C32.357 -0.00861275 31.9784 -0.0234827 31.6086 0.0351073C31.2387 0.0936972 30.8857 0.224475 30.5717 0.419187C30.2577 0.613899 29.9897 0.868317 29.7844 1.16639L28.7884 2.47744L18.6764 16.0476L32.4784 18.4895C32.7126 18.5306 32.953 18.5275 33.186 18.4803C33.4189 18.4332 33.6398 18.3429 33.836 18.2147C34.0322 18.0865 34.1999 17.9228 34.3295 17.733C34.4591 17.5432 34.5481 17.331 34.5914 17.1086C34.6347 16.8861 34.6314 16.6577 34.5818 16.4365C34.5322 16.2152 34.4372 16.0054 34.3022 15.819C34.1672 15.6326 33.9949 15.4733 33.7951 15.3502C33.5953 15.2271 33.3719 15.1426 33.1377 15.1014Z" fill="#ED1F78"/>
<path d="M85.5096 15.9124H85.2819C85.1206 15.534 84.9357 15.16 84.8076 14.7726C83.2266 10.4264 81.6456 6.07122 80.0646 1.70704C79.6852 0.675311 79.0591 0.22027 78.0963 0.22027C77.1335 0.22027 76.5975 0.783439 76.2323 1.60341C75.3406 3.6128 74.3826 5.59516 73.4861 7.60004C73.4234 7.78542 73.2939 7.94391 73.1205 8.04771C72.9471 8.15151 72.7407 8.19399 72.5375 8.16771C71.0056 8.14518 69.4736 8.16771 67.9416 8.16771C66.6373 8.16771 65.9069 8.79396 65.9259 9.8437C65.9448 10.8934 66.7179 11.4972 67.9985 11.5017C70.0427 11.5017 72.0822 11.5017 74.1264 11.5017C74.5672 11.5375 75.0077 11.4305 75.3763 11.1982C75.7449 10.9658 76.0199 10.6218 76.1564 10.2222C76.6307 9.10032 77.1857 8.01453 77.7833 6.73952C77.9493 7.13599 78.0584 7.37026 78.1485 7.61355C79.2915 10.5961 80.4156 13.5877 81.5824 16.5657C81.8188 17.2275 82.156 17.8529 82.5831 18.4219C82.9131 18.8476 83.3452 19.1924 83.8435 19.4277C84.3418 19.663 84.892 19.7821 85.4484 19.7751C86.0049 19.768 86.5515 19.635 87.0431 19.3872C87.5346 19.1393 87.9568 18.7837 88.2747 18.3498C88.6727 17.7912 88.9917 17.1853 89.2233 16.5477C90.3806 13.6237 91.4999 10.6907 92.6287 7.75322C93.2548 6.1358 93.8904 4.52288 94.488 2.89645C94.9101 1.7566 94.3884 0.603225 93.3592 0.283345C92.2493 -0.0635669 91.2486 0.468065 90.7743 1.66198C90.7031 1.8422 90.6462 2.02241 90.5845 2.19812C89.0035 6.49623 87.4368 10.7958 85.8843 15.0969C85.7467 15.3853 85.6234 15.6511 85.5096 15.9124ZM53.8313 12.3081C56.6344 10.6096 57.6778 8.81648 57.4502 6.21239C57.1419 2.66217 54.557 0.395979 50.6535 0.310377C48.6947 0.265324 46.7358 0.283345 44.7817 0.310377C42.9272 0.310377 42.045 1.21145 42.0403 2.98656C42.0403 6.75904 42.0403 10.533 42.0403 14.3085C42.0403 15.4664 42.0071 16.6288 42.0403 17.7866C42.0403 18.2777 42.2456 18.7487 42.6112 19.096C42.9768 19.4433 43.4726 19.6383 43.9896 19.6383C44.5066 19.6383 45.0025 19.4433 45.368 19.096C45.7336 18.7487 45.939 18.2777 45.939 17.7866C45.9532 17.518 45.9532 17.2488 45.939 16.9802C45.939 12.9344 45.939 8.89007 45.939 4.84727V4.02729C47.7176 4.02729 49.3634 3.94169 50.9997 4.04982C52.6361 4.15795 53.4803 5.13561 53.4945 6.68545C53.5088 8.23529 52.7167 9.07779 51.0898 9.30306C50.8622 9.3391 50.6156 9.34811 50.4116 9.37515C48.6188 9.57789 47.8789 11.1503 48.9887 12.4974C50.7531 14.6449 52.5491 16.7684 54.3767 18.8679C54.712 19.2226 55.157 19.4671 55.6478 19.5663C56.0409 19.6538 56.4536 19.6124 56.8187 19.4487C57.1839 19.2851 57.48 19.009 57.6589 18.6652C57.8792 18.3288 57.9801 17.9341 57.9468 17.5392C57.9135 17.1443 57.7478 16.7699 57.4739 16.4711C56.2834 15.0924 55.0882 13.7363 53.8313 12.3307V12.3081ZM111.055 15.9079H110.785C110.676 15.6421 110.557 15.3763 110.458 15.106C109.218 11.7239 107.985 8.33892 106.758 4.95089C106.341 3.80653 105.947 2.65316 105.501 1.51781C105.366 1.11138 105.086 0.76216 104.71 0.529667C104.333 0.297174 103.884 0.195792 103.438 0.242797C103.021 0.26093 102.625 0.41824 102.319 0.686965C102.012 0.955691 101.816 1.31856 101.764 1.71154C101.706 2.18817 101.766 2.67108 101.939 3.12172C103.65 7.69014 105.389 12.2496 107.156 16.8C107.354 17.3341 107.627 17.8404 107.968 18.3048C108.287 18.7632 108.72 19.1398 109.229 19.401C109.738 19.6622 110.307 19.8001 110.885 19.8023C111.464 19.8046 112.034 19.6711 112.545 19.4138C113.056 19.1565 113.493 18.7833 113.816 18.3273C114.212 17.7675 114.53 17.1619 114.764 16.5251C115.907 13.6282 117.022 10.7177 118.141 7.80728C118.796 6.11327 119.469 4.42376 120.038 2.71173C120.209 2.246 120.182 1.73532 119.962 1.28847C119.742 0.84162 119.348 0.493906 118.862 0.319388C118.371 0.157718 117.833 0.186806 117.365 0.400313C116.897 0.61382 116.537 0.994441 116.363 1.45924C116.258 1.68 116.182 1.90978 116.102 2.14406C114.521 6.46919 112.94 10.7958 111.359 15.124C111.273 15.3853 111.15 15.6466 111.055 15.9079ZM63.6777 3.88312H64.6263C67.0642 3.88312 69.502 3.88312 71.9399 3.88312C72.431 3.88345 72.9031 3.70289 73.2569 3.3794C73.6107 3.05591 73.8187 2.61471 73.8371 2.14856C73.8493 1.9168 73.8119 1.6851 73.7271 1.46746C73.6424 1.24982 73.5121 1.05076 73.3441 0.882319C73.176 0.713873 72.9738 0.579536 72.7496 0.487427C72.5254 0.395318 72.2838 0.347349 72.0395 0.34642C68.7859 0.305872 65.5227 0.287851 62.2643 0.355431C61.9195 0.347273 61.5768 0.407349 61.2578 0.531839C60.9389 0.65633 60.6507 0.842509 60.4116 1.07854C60.1725 1.31457 59.9877 1.59528 59.869 1.90282C59.7503 2.21036 59.7002 2.53801 59.722 2.86491C59.6968 7.55048 59.6968 12.2375 59.722 16.9261C59.7015 17.2606 59.7555 17.5954 59.8806 17.9087C60.0058 18.2219 60.1991 18.5066 60.4481 18.7439C60.6971 18.9812 60.996 19.166 61.3253 19.2859C61.6547 19.4059 62.007 19.4584 62.3591 19.4401C65.5654 19.4401 68.7669 19.4401 71.9731 19.4401C72.2143 19.4561 72.4563 19.4251 72.6843 19.349C72.9124 19.2729 73.1217 19.1534 73.2993 18.9977C73.477 18.842 73.6193 18.6535 73.7175 18.4437C73.8157 18.2339 73.8677 18.0072 73.8703 17.7776C73.8853 17.3159 73.7131 16.8663 73.3892 16.5217C73.0652 16.1771 72.6144 15.9638 72.1296 15.9259C71.8737 15.9124 71.6172 15.9124 71.3613 15.9259H63.6777V3.88312ZM127.902 8.13167L127.115 8.19024C126.887 8.1892 126.661 8.23268 126.451 8.31801C126.242 8.40333 126.053 8.52867 125.896 8.68624C125.74 8.84381 125.619 9.03026 125.541 9.23402C125.464 9.43778 125.431 9.6545 125.445 9.87074C125.447 10.3073 125.63 10.7255 125.955 11.0338C126.281 11.3421 126.722 11.5152 127.181 11.5152C127.549 11.549 127.919 11.549 128.286 11.5152C128.941 11.4341 129.235 11.6954 129.42 12.2856C130.098 14.286 130.843 16.2638 131.559 18.2462C131.666 18.5861 131.879 18.8869 132.171 19.1084C132.462 19.3298 132.818 19.4613 133.191 19.4852C133.544 19.5365 133.906 19.4863 134.23 19.341C134.554 19.1957 134.824 18.962 135.007 18.6697C135.196 18.3676 135.305 18.0261 135.323 17.6751C135.341 17.324 135.268 16.9741 135.112 16.6558C133.619 12.7331 132.139 8.80597 130.672 4.8743C130.345 4.01378 130.079 3.12622 129.686 2.29273C129.414 1.63409 128.938 1.06901 128.322 0.671775C127.706 0.274537 126.977 0.0637379 126.233 0.0670883C124.563 0.0130241 123.221 0.625752 122.576 2.08098C121.542 4.41025 120.679 6.79808 119.763 9.18142C119.646 9.56111 119.662 9.96657 119.808 10.337C119.955 10.7074 120.223 11.0228 120.574 11.2359C120.909 11.4457 121.307 11.5464 121.707 11.5228C122.108 11.4992 122.489 11.3527 122.794 11.1052C123.15 10.7648 123.419 10.3519 123.581 9.89777C124.245 8.09563 124.848 6.29349 125.479 4.46431C125.559 4.24806 125.82 4.08586 125.996 3.89664C126.18 4.07685 126.47 4.22102 126.531 4.43728C127.015 5.62219 127.428 6.82512 127.902 8.13167ZM140.775 15.8358V14.723C140.775 10.5781 140.775 6.42865 140.775 2.28372C140.775 1.03574 140.016 0.256313 138.877 0.233786C138.606 0.215594 138.333 0.253188 138.078 0.344013C137.823 0.434838 137.592 0.576764 137.399 0.760141C137.207 0.943519 137.059 1.16405 136.964 1.40674C136.87 1.64942 136.832 1.90858 136.852 2.16658C136.852 7.27265 136.862 12.3637 136.881 17.4397C136.869 17.7049 136.916 17.9695 137.018 18.2165C137.12 18.4635 137.276 18.6875 137.475 18.8742C137.673 19.0608 137.911 19.2059 138.172 19.3003C138.433 19.3946 138.712 19.4361 138.991 19.4221C142.248 19.4401 145.51 19.4401 148.776 19.4221C149.25 19.4344 149.711 19.2695 150.058 18.9628C150.406 18.6562 150.613 18.2323 150.635 17.7821C150.665 17.3185 150.511 16.861 150.202 16.5005C149.894 16.14 149.454 15.9028 148.97 15.8358C148.575 15.7967 148.177 15.7846 147.78 15.7998C145.489 15.8088 143.198 15.8358 140.775 15.8358ZM96.1907 9.86623H96.167C96.167 12.3982 96.167 14.9348 96.167 17.4668C96.167 18.7733 96.9875 19.6203 98.178 19.5978C99.3685 19.5753 100.104 18.7508 100.104 17.4713C100.104 12.4343 100.104 7.39579 100.104 2.35581C100.11 2.08712 100.07 1.81927 99.9851 1.56287C99.8471 1.15524 99.5608 0.807596 99.1776 0.58222C98.7943 0.356844 98.3391 0.268461 97.8934 0.332904C97.424 0.389923 96.9925 0.607615 96.6799 0.945181C96.3674 1.28275 96.1951 1.71701 96.1955 2.16658C96.1717 4.72562 96.186 7.27565 96.186 9.8437L96.1907 9.86623Z" fill="white"/>
<path d="M51.417 32.8525L50.3167 26.5811L47.4045 32.6498H47.1199L44.203 26.5856L43.0931 32.8525H42.0117L43.4346 24.824H44.4591L47.248 30.7035L50.0558 24.8465H51.0992L52.5221 32.875L51.417 32.8525Z" fill="white"/>
<path d="M62.7385 31.8884V32.8525H57.8153V24.8465H62.6057V25.8016H58.8825V28.2841H62.2927V29.2167H58.8825V31.9199L62.7385 31.8884Z" fill="white"/>
<path d="M70.9391 24.8465C71.4941 24.8465 72.0436 24.9503 72.5563 25.1521C73.0691 25.3538 73.5349 25.6495 73.9274 26.0222C74.3198 26.395 74.6311 26.8375 74.8434 27.3246C75.0558 27.8116 75.1651 28.3336 75.1651 28.8608C75.1651 29.3879 75.0558 29.9099 74.8434 30.397C74.6311 30.884 74.3198 31.3265 73.9274 31.6993C73.5349 32.072 73.0691 32.3677 72.5563 32.5695C72.0436 32.7712 71.4941 32.875 70.9391 32.875H68.1171V24.8465H70.9391ZM74.1454 28.8608C74.1675 28.4495 74.0991 28.0383 73.9446 27.6535C73.7901 27.2687 73.5529 26.9187 73.2482 26.6258C72.9434 26.3329 72.5777 26.1035 72.1744 25.9523C71.7712 25.8011 71.3391 25.7314 70.9059 25.7476H69.1795V31.9109H70.9059C71.3352 31.926 71.7632 31.8569 72.1631 31.7079C72.563 31.5589 72.9263 31.3332 73.2303 31.0448C73.5342 30.7565 73.7724 30.4118 73.9298 30.0321C74.0873 29.6524 74.1607 29.246 74.1454 28.8382V28.8608Z" fill="white"/>
<path d="M80.5911 24.8465H81.6487V32.8525H80.5863L80.5911 24.8465Z" fill="white"/>
<path d="M92.6524 30.9332H88.5925L87.7624 32.8525H86.6384L90.096 24.8465H91.0873L94.6397 32.875H93.5062L92.6524 30.9332ZM88.9861 30.0096H92.254L90.6082 26.1981L88.9861 30.0096Z" fill="white"/>
</svg>
