<svg width="15" height="15" viewBox="0 0 15 15" fill="none" xmlns="http://www.w3.org/2000/svg">
<path d="M10.2344 14.3103C10.6623 13.9295 10.7094 13.2634 10.3397 12.8227C9.97 12.3819 9.32346 12.3334 8.8956 12.7142C8.46775 13.0951 8.42061 13.7611 8.79032 14.2019C9.16002 14.6426 9.80656 14.6912 10.2344 14.3103Z" fill="white"/>
<path d="M14.1776 12.7006L13.6066 12.2828L7.6762 7.9585L6.60904 13.8608C6.58828 13.962 6.58738 14.0664 6.60641 14.1679C6.62543 14.2695 6.66399 14.366 6.71981 14.452C6.77563 14.5379 6.84759 14.6115 6.93143 14.6683C7.01528 14.7251 7.10932 14.7641 7.20802 14.7829C7.30672 14.8018 7.40807 14.8 7.50611 14.7779C7.60415 14.7557 7.6969 14.7136 7.77888 14.6539C7.86086 14.5942 7.93042 14.5183 7.98345 14.4305C8.03649 14.3427 8.07194 14.2449 8.0877 14.1428L8.67838 10.8833L12.7993 14.5342C12.914 14.6427 13.0492 14.7255 13.1965 14.7774C13.3438 14.8293 13.4999 14.8492 13.655 14.8358C13.8101 14.8225 13.9608 14.7761 14.0977 14.6997C14.2345 14.6233 14.3545 14.5185 14.4501 14.392C14.5457 14.2654 14.6147 14.1198 14.6529 13.9643C14.6911 13.8089 14.6976 13.647 14.672 13.4888C14.6464 13.3307 14.5892 13.1797 14.5041 13.0454C14.419 12.9112 14.3079 12.7965 14.1776 12.7088V12.7006Z" fill="white"/>
<path d="M1.73899 10.6026C2.29356 10.4889 2.65362 9.93355 2.54321 9.36227C2.4328 8.79098 1.89373 8.42006 1.33916 8.5338C0.784588 8.64754 0.424528 9.20287 0.534939 9.77415C0.64535 10.3454 1.18442 10.7164 1.73899 10.6026Z" fill="white"/>
<path d="M1.20038 6.52122C1.00404 6.48384 0.801321 6.52833 0.636822 6.64492C0.472323 6.7615 0.35952 6.94063 0.323227 7.14289C0.286935 7.34516 0.330127 7.55399 0.4433 7.72345C0.556474 7.89291 0.73036 8.00911 0.926704 8.0465L4.09077 8.65498L0.546701 12.9002C0.44142 13.0183 0.361048 13.1576 0.310655 13.3093C0.260263 13.461 0.240945 13.6218 0.25392 13.7816C0.266896 13.9414 0.311883 14.0967 0.386043 14.2377C0.460203 14.3787 0.561925 14.5023 0.684791 14.6007C0.807656 14.6992 0.948996 14.7703 1.09989 14.8096C1.25079 14.849 1.40796 14.8557 1.56149 14.8293C1.71502 14.8029 1.86158 14.744 1.99192 14.6564C2.12225 14.5687 2.23353 14.4542 2.31874 14.32L2.72434 13.7298L6.92997 7.62258L1.20038 6.52122Z" fill="white"/>
<path d="M5.70741 2.32192C5.89845 2.25287 6.06532 2.12703 6.18695 1.9603C6.30857 1.79357 6.37948 1.59343 6.39071 1.3852C6.40194 1.17696 6.35299 0.969968 6.25005 0.790385C6.14711 0.610801 5.99479 0.466688 5.81235 0.376264C5.62992 0.285839 5.42555 0.253162 5.2251 0.282363C5.02464 0.311564 4.83708 0.401332 4.68613 0.54032C4.53519 0.679307 4.42763 0.861275 4.37706 1.06322C4.32649 1.26517 4.33517 1.47803 4.40201 1.67489C4.44643 1.80571 4.51544 1.92624 4.6051 2.02957C4.69476 2.1329 4.8033 2.21701 4.92454 2.2771C5.04577 2.33719 5.17731 2.37208 5.31165 2.37977C5.44598 2.38746 5.58046 2.3678 5.70741 2.32192Z" fill="white"/>
<path d="M7.33575 0.105672C7.21052 0.150342 7.09909 0.228565 7.01293 0.3323C6.92676 0.436034 6.86897 0.561536 6.84549 0.695904L6.25481 3.95537L2.13975 0.310529C2.02511 0.202074 1.88988 0.119278 1.74261 0.0673666C1.59534 0.0154549 1.43922 -0.00444562 1.28411 0.0089211C1.129 0.0222878 0.978264 0.0686315 0.841413 0.145027C0.704562 0.221423 0.584569 0.326213 0.489007 0.452782C0.393446 0.579351 0.32439 0.724953 0.286198 0.880397C0.248006 1.03584 0.241508 1.19775 0.267113 1.35591C0.292718 1.51408 0.34987 1.66505 0.434963 1.79932C0.520056 1.93358 0.631242 2.04822 0.761504 2.13599L1.33249 2.55382L7.257 6.88016L8.32416 0.977836C8.34877 0.844199 8.33871 0.706236 8.29499 0.577887C8.25127 0.449538 8.17544 0.335351 8.07516 0.246863C7.97488 0.158375 7.8537 0.0987217 7.72387 0.0739304C7.59404 0.0491391 7.46016 0.0600883 7.33575 0.105672Z" fill="white"/>
<path d="M13.0552 4.28968C12.8641 4.35887 12.6973 4.48487 12.5758 4.65174C12.4542 4.81861 12.3835 5.01886 12.3724 5.22716C12.3614 5.43546 12.4106 5.64246 12.5137 5.82197C12.6169 6.00149 12.7694 6.14546 12.952 6.23567C13.1346 6.32589 13.339 6.3583 13.5395 6.32881C13.74 6.29932 13.9274 6.20925 14.0782 6.06999C14.229 5.93073 14.3363 5.74854 14.3866 5.54645C14.4368 5.34437 14.4278 5.13147 14.3606 4.93468C14.2705 4.67084 14.0823 4.45467 13.8375 4.33371C13.5927 4.21275 13.3113 4.19692 13.0552 4.28968Z" fill="white"/>
<path d="M14.0063 6.7986L10.8422 6.19012L14.3863 1.9449C14.4916 1.8268 14.572 1.6875 14.6224 1.53579C14.6728 1.38408 14.6921 1.22325 14.6791 1.06347C14.6661 0.903679 14.6211 0.748397 14.547 0.60742C14.4728 0.466443 14.3711 0.342833 14.2482 0.24439C14.1254 0.145947 13.984 0.074809 13.8331 0.0354658C13.6822 -0.00387742 13.5251 -0.0105718 13.3715 0.0158051C13.218 0.0421821 13.0714 0.101058 12.9411 0.188716C12.8108 0.276375 12.6995 0.390913 12.6143 0.525102L12.2008 1.11533L8.00305 7.22454L13.7326 8.32388C13.8299 8.34239 13.9297 8.34099 14.0264 8.31977C14.1231 8.29855 14.2147 8.25791 14.2962 8.20018C14.3776 8.14246 14.4473 8.06877 14.5011 7.98332C14.5549 7.89788 14.5918 7.80236 14.6098 7.70221C14.6278 7.60206 14.6264 7.49924 14.6058 7.39963C14.5852 7.30002 14.5458 7.20556 14.4897 7.12165C14.4337 7.03774 14.3621 6.96603 14.2792 6.9106C14.1963 6.85517 14.1035 6.81711 14.0063 6.7986Z" fill="white"/>
</svg>
