<?xml version="1.0" standalone="no"?>
<!DOCTYPE svg PUBLIC "-//W3C//DTD SVG 20010904//EN"
 "http://www.w3.org/TR/2001/REC-SVG-20010904/DTD/svg10.dtd">
<svg version="1.0" xmlns="http://www.w3.org/2000/svg"
 width="700.000000pt" height="700.000000pt" viewBox="0 0 700.000000 700.000000"
 preserveAspectRatio="xMidYMid meet">
<metadata>
Created by potrace 1.14, written by Peter Selinger 2001-2017
</metadata>
<g transform="translate(0.000000,700.000000) scale(0.100000,-0.100000)"
fill="#000000" stroke="none">
<path d="M498 6984 c-2 -1 -21 -4 -43 -7 -183 -26 -350 -165 -421 -352 -40
-107 -39 -280 2 -386 43 -109 120 -199 244 -285 58 -39 1349 -952 1674 -1183
81 -58 180 -128 218 -154 101 -71 494 -349 553 -392 28 -20 121 -87 209 -148
87 -62 187 -132 222 -157 131 -93 244 -171 244 -167 0 2 47 259 74 402 2 11 9
47 15 80 15 81 20 105 26 137 4 15 8 39 10 55 2 15 7 39 10 53 3 14 9 50 15
80 6 30 12 65 14 76 2 12 7 37 10 55 3 19 12 66 20 104 8 39 17 88 20 110 4
22 27 146 51 275 24 129 47 249 49 265 6 29 9 49 21 105 2 14 7 41 10 60 3 19
8 42 10 50 2 8 7 31 10 50 6 35 14 79 40 220 8 41 17 89 20 105 3 17 8 41 10
55 3 14 8 39 11 55 2 17 21 116 40 220 20 105 37 206 38 225 9 139 -78 280
-214 348 -48 24 -67 27 -150 27 -82 0 -103 -4 -152 -27 -75 -35 -140 -96 -173
-164 -26 -54 -51 -158 -81 -339 -2 -16 -7 -41 -10 -55 -3 -14 -8 -36 -10 -50
-2 -14 -13 -72 -24 -130 -10 -58 -22 -118 -24 -135 -3 -16 -8 -41 -11 -55 -2
-14 -6 -36 -9 -50 -2 -14 -18 -99 -35 -190 -35 -183 -59 -315 -92 -495 -12
-66 -25 -124 -29 -129 -7 -7 -63 38 -275 223 -80 69 -241 207 -253 216 -7 6
-23 19 -35 31 -17 17 -274 236 -396 339 -13 11 -29 25 -35 31 -6 5 -49 43 -96
83 -47 40 -96 83 -110 95 -14 11 -72 61 -130 110 -58 50 -112 97 -121 105 -9
9 -27 25 -40 35 -34 29 -500 428 -524 449 -68 62 -213 116 -321 121 -41 1 -75
2 -76 0z"/>
<path d="M6333 6975 c-96 -21 -189 -72 -258 -140 -33 -33 -108 -127 -166 -210
-58 -82 -183 -260 -279 -395 -95 -135 -189 -267 -208 -295 -66 -93 -544 -769
-687 -970 -78 -110 -172 -243 -208 -295 -37 -52 -86 -122 -110 -155 -24 -33
-60 -84 -80 -112 -20 -29 -52 -74 -70 -100 -19 -27 -138 -195 -265 -375 -128
-179 -232 -330 -232 -335 0 -5 8 -9 18 -10 10 -1 65 -10 122 -21 58 -12 125
-24 150 -27 24 -4 47 -8 50 -10 3 -2 21 -6 40 -9 42 -7 153 -27 305 -56 61
-11 124 -23 140 -25 17 -3 50 -10 75 -15 25 -5 95 -19 155 -30 61 -10 121 -22
135 -24 13 -3 42 -8 64 -12 22 -3 43 -7 46 -9 3 -1 28 -6 55 -9 28 -4 57 -9
65 -11 13 -4 328 -64 415 -79 17 -3 80 -15 140 -26 61 -12 146 -28 190 -36 44
-7 91 -16 105 -19 14 -3 75 -14 135 -25 61 -11 121 -22 135 -25 40 -8 96 -19
150 -29 19 -3 46 -8 60 -11 127 -26 251 3 337 78 171 150 166 416 -10 561 -73
59 -80 62 -457 131 -107 20 -208 39 -225 41 -16 3 -50 9 -75 14 -25 5 -58 12
-75 15 -45 7 -81 14 -170 31 -90 17 -176 33 -345 63 -63 12 -124 23 -135 25
-11 2 -63 12 -115 22 -52 9 -97 19 -99 21 -4 2 47 65 126 153 12 14 70 81 128
150 59 69 119 139 133 155 15 17 69 80 120 140 52 61 115 135 142 165 26 30
69 80 95 110 26 30 59 69 74 85 14 17 46 55 71 85 25 30 48 57 51 60 6 4 33
36 195 225 23 28 170 199 326 381 157 182 296 351 310 375 119 202 92 468 -63
642 -73 83 -190 152 -286 172 -61 13 -181 12 -240 0z"/>
<path d="M2330 6848 c-170 -53 -304 -202 -341 -375 -15 -77 -6 -194 21 -268
28 -74 98 -175 148 -212 20 -15 39 -31 42 -34 11 -14 89 -48 145 -65 271 -79
567 103 620 379 33 173 -14 329 -134 447 -36 36 -89 77 -117 92 -112 60 -263
74 -384 36z"/>
<path d="M6328 5005 c-2 -2 -20 -6 -40 -9 -92 -14 -199 -76 -271 -156 -220
-245 -146 -632 148 -775 153 -74 303 -72 459 7 154 78 258 254 258 438 1 266
-206 482 -474 495 -42 1 -78 2 -80 0z"/>
<path d="M278 3910 c-102 -31 -176 -94 -222 -185 -32 -65 -43 -116 -40 -182
10 -174 138 -316 314 -347 14 -2 54 -9 90 -15 36 -6 85 -16 110 -21 25 -5 86
-16 135 -25 50 -9 135 -25 190 -35 55 -11 116 -22 135 -25 19 -3 42 -8 50 -10
8 -2 33 -6 55 -10 22 -3 76 -12 120 -21 44 -9 94 -18 110 -20 17 -3 50 -9 75
-14 51 -11 297 -56 350 -65 78 -13 100 -17 100 -22 0 -4 -76 -96 -110 -133 -8
-9 -24 -27 -35 -41 -26 -30 -192 -224 -227 -264 -33 -38 -346 -402 -407 -474
-57 -68 -114 -134 -121 -141 -3 -3 -154 -178 -335 -390 -181 -212 -332 -387
-335 -390 -3 -3 -28 -32 -55 -64 -28 -33 -61 -71 -74 -85 -92 -99 -145 -232
-145 -366 0 -108 6 -146 38 -226 65 -159 219 -289 386 -324 111 -24 258 -6
362 44 132 64 144 80 1140 1496 50 71 622 879 669 945 21 30 126 179 233 330
107 151 241 340 297 419 65 92 97 146 90 150 -6 4 -80 20 -163 35 -84 16 -184
34 -223 42 -38 7 -86 16 -105 19 -19 3 -82 15 -140 26 -58 11 -116 23 -130 25
-14 2 -48 9 -76 15 -28 5 -64 12 -80 15 -16 2 -76 13 -134 24 -58 11 -121 22
-140 25 -19 3 -42 8 -50 10 -8 2 -31 7 -50 10 -19 3 -80 14 -135 25 -55 10
-116 22 -135 25 -19 3 -42 8 -50 10 -8 2 -35 7 -60 10 -24 4 -47 8 -50 10 -3
2 -23 6 -45 9 -40 6 -207 37 -330 61 -16 3 -66 12 -110 20 -123 22 -126 23
-320 60 -288 55 -338 60 -417 35z"/>
<path d="M3600 3227 c0 -2 -18 -98 -39 -213 -22 -115 -43 -225 -46 -244 -3
-19 -8 -42 -10 -50 -3 -8 -7 -31 -9 -50 -3 -19 -10 -60 -16 -90 -6 -30 -15
-77 -20 -105 -5 -27 -18 -99 -30 -160 -11 -60 -22 -121 -25 -135 -2 -14 -23
-122 -45 -240 -49 -263 -46 -246 -55 -295 -4 -22 -10 -49 -12 -60 -2 -11 -6
-33 -9 -50 -6 -36 -34 -192 -40 -220 -2 -11 -7 -33 -9 -50 -3 -16 -19 -100
-35 -185 -16 -85 -32 -168 -35 -185 -2 -16 -7 -41 -10 -55 -8 -39 -24 -131
-31 -175 -3 -22 -7 -42 -9 -45 -2 -3 -6 -24 -9 -46 -4 -22 -9 -51 -11 -64 -30
-148 -20 -230 40 -325 40 -64 84 -100 160 -136 171 -80 376 -11 468 159 24 44
54 162 71 277 3 22 10 60 15 85 6 25 17 86 26 135 9 50 20 110 25 135 5 25 16
83 24 130 9 47 39 209 67 360 28 151 60 329 72 395 11 66 22 122 23 124 3 4
45 -28 94 -72 19 -18 64 -57 100 -87 35 -30 76 -65 90 -77 14 -12 147 -126
295 -253 149 -128 295 -253 325 -279 30 -25 75 -64 100 -86 25 -22 88 -76 140
-120 52 -44 97 -82 100 -85 11 -11 98 -87 149 -130 30 -25 59 -50 65 -55 64
-61 586 -501 618 -522 113 -71 293 -100 418 -67 182 49 318 168 381 333 31 81
34 104 32 221 -1 115 -22 185 -82 279 -58 90 -35 72 -959 725 -209 147 -278
197 -287 204 -5 4 -39 28 -75 52 -52 37 -333 236 -465 330 -54 38 -240 169
-258 182 -11 7 -41 29 -67 48 -73 52 -529 374 -570 402 -45 31 -335 237 -345
245 -26 22 -273 193 -279 193 -3 0 -6 -1 -6 -3z"/>
<path d="M510 2970 c-76 -16 -188 -78 -245 -135 -277 -280 -147 -741 237 -839
64 -16 187 -14 245 4 137 44 261 148 314 266 38 84 40 92 46 182 14 201 -92
387 -270 476 -40 19 -85 38 -102 42 -55 11 -179 13 -225 4z"/>
<path d="M4397 1095 c-281 -78 -437 -368 -346 -642 116 -350 561 -452 824
-188 145 147 184 361 100 552 -57 129 -172 229 -310 272 -72 22 -200 25 -268
6z"/>
</g>
</svg>
