<svg width="27" height="31" viewBox="0 0 27 31" fill="none" xmlns="http://www.w3.org/2000/svg">
<path fill-rule="evenodd" clip-rule="evenodd" d="M13.5 0.500244C12.2063 0.500244 10.0444 0.997119 8.01001 1.55024C5.92876 2.11274 3.83063 2.77837 2.59688 3.18149C2.08106 3.35184 1.62374 3.66424 1.27748 4.08281C0.931216 4.50138 0.710049 5.00913 0.639385 5.54774C-0.478115 13.9421 2.11501 20.1634 5.26126 24.279C6.59548 26.0395 8.18631 27.5899 9.98063 28.8784C10.7044 29.3902 11.3756 29.7821 11.9456 30.0502C12.4706 30.2977 13.035 30.5002 13.5 30.5002C13.965 30.5002 14.5275 30.2977 15.0544 30.0502C15.7415 29.7163 16.3989 29.3242 17.0194 28.8784C18.8137 27.59 20.4046 26.0396 21.7388 24.279C24.885 20.1634 27.4781 13.9421 26.3606 5.54774C26.2901 5.00887 26.069 4.50082 25.7227 4.08193C25.3765 3.66304 24.9191 3.3503 24.4031 3.17962C22.6121 2.59239 20.8072 2.04849 18.99 1.54837C16.9556 0.998994 14.7938 0.500244 13.5 0.500244ZM13.5 9.87524C14.1642 9.87425 14.8073 10.1084 15.3155 10.5361C15.8236 10.9639 16.1639 11.5576 16.2762 12.2123C16.3885 12.8669 16.2655 13.5402 15.9289 14.1128C15.5924 14.6854 15.0641 15.1205 14.4375 15.3409L15.1594 19.0721C15.1856 19.2078 15.1816 19.3477 15.1475 19.4816C15.1133 19.6156 15.05 19.7403 14.962 19.8469C14.8741 19.9536 14.7636 20.0394 14.6386 20.0983C14.5135 20.1572 14.377 20.1878 14.2388 20.1877H12.7613C12.6232 20.1875 12.4869 20.1568 12.3621 20.0977C12.2373 20.0387 12.127 19.9528 12.0392 19.8462C11.9515 19.7396 11.8883 19.615 11.8543 19.4812C11.8203 19.3474 11.8163 19.2077 11.8425 19.0721L12.5625 15.3409C11.9359 15.1205 11.4076 14.6854 11.0711 14.1128C10.7345 13.5402 10.6115 12.8669 10.7238 12.2123C10.8361 11.5576 11.1764 10.9639 11.6846 10.5361C12.1927 10.1084 12.8358 9.87425 13.5 9.87524Z" fill="url(#paint0_linear_254_8322)"/>
<defs>
<linearGradient id="paint0_linear_254_8322" x1="0.375" y1="30.5002" x2="26.9981" y2="8.4051" gradientUnits="userSpaceOnUse">
<stop stop-color="#7B00DB"/>
<stop offset="1" stop-color="#ED1F78"/>
</linearGradient>
</defs>
</svg>
