<svg width="108" height="108" viewBox="0 0 108 108" fill="none" xmlns="http://www.w3.org/2000/svg">
<path fill-rule="evenodd" clip-rule="evenodd" d="M44.5818 39.3915C44.5321 39.3915 44.4359 39.3915 44.3862 39.3915C43.5612 39.2909 42.882 38.5349 42.882 37.6782C42.8323 36.8717 42.3948 18.0232 53.0275 13.7397C55.6981 12.6812 58.1766 12.8827 60.264 14.4453C62.8352 16.3099 64.6807 20.0392 65.7973 25.4821C66.5727 29.3123 66.7185 32.6383 66.7185 32.7896C66.7682 33.5958 66.1387 34.2009 65.3104 34.0495C64.4853 33.9486 63.8061 33.1929 63.8061 32.3864C63.6604 28.9595 62.5437 19.5354 58.8559 16.8137C57.6895 15.9571 56.2315 15.8562 54.4854 16.5618C45.357 20.2407 45.7944 37.9301 45.7944 38.1316C45.7944 38.8372 45.3107 39.3915 44.5818 39.3915Z" fill="#595961"/>
<path opacity="0.46" fill-rule="evenodd" clip-rule="evenodd" d="M59.727 14.5458C57.7854 13.1345 55.5056 12.933 53.0272 13.8906C48.7065 15.6543 45.6484 20.291 44.1441 27.3466C43.0275 32.5373 43.1732 37.2244 43.1732 37.4259C43.1732 37.6778 43.2693 37.9301 43.4648 38.1315C43.657 38.333 43.8525 38.4843 44.0943 38.4843C44.144 38.4843 44.1938 38.4843 44.2401 38.4843C44.6775 38.4843 45.0187 38.1315 45.0187 37.6778C45.0187 37.4763 44.5815 19.4845 53.9518 15.7048C55.8438 14.949 57.4938 15.0496 58.8556 16.0576C62.7853 18.9302 63.9515 28.657 64.0973 32.1344C64.0973 32.6382 64.5348 33.1423 65.0682 33.1925C65.5553 33.2429 65.9429 32.8901 65.9429 32.3863C65.8932 31.7815 65.3598 18.6783 59.727 14.5458Z" fill="#B2B2C2"/>
<path opacity="0.46" fill-rule="evenodd" clip-rule="evenodd" d="M44.1439 37.8796C44.0942 37.8796 44.0942 37.8796 44.0479 37.8796C43.7563 37.8292 43.511 37.5268 43.4646 37.2244C43.4646 37.0226 43.3189 32.4367 44.4355 27.2457C45.8901 20.3415 48.9516 15.7552 53.1729 14.0416C55.5519 13.0841 57.6892 13.2859 59.5348 14.5962C64.9721 18.5774 65.5055 31.4792 65.5055 32.0335C65.5055 32.3358 65.2636 32.5373 64.972 32.4872C64.6804 32.4367 64.4385 32.1848 64.3888 31.832C64.3888 31.6806 63.8553 19.0311 58.9515 15.4024C57.4936 14.3443 55.6978 14.193 53.6601 14.9991C44.1439 18.9807 44.5814 37.2244 44.5814 37.4259C44.6277 37.6778 44.4355 37.8796 44.1439 37.8796Z" fill="#B2B2C2"/>
<path opacity="0.62" fill-rule="evenodd" clip-rule="evenodd" d="M48.0777 23.4665C48.4654 22.7107 48.853 21.9546 49.1943 21.1484C49.0485 21.4004 48.0776 24.0211 45.1154 23.6178C45.0657 23.6178 46.8617 24.1721 48.0777 23.4665Z" fill="#595961"/>
<path opacity="0.62" fill-rule="evenodd" clip-rule="evenodd" d="M47.007 26.6915C47.2985 25.885 47.5901 25.0284 47.7856 24.2222C47.6895 24.5245 47.2024 27.2458 44.0944 27.2458C44.0944 27.2458 45.8903 27.5986 47.007 26.6915Z" fill="#595961"/>
<path opacity="0.62" fill-rule="evenodd" clip-rule="evenodd" d="M64.0482 20.1907C63.6606 19.2833 63.2231 18.4266 62.7857 17.5195C62.9315 17.8219 64.3895 20.6945 62.7394 22.7606C62.7394 22.7606 64.0019 21.753 64.0482 20.1907Z" fill="#595961"/>
<path opacity="0.62" fill-rule="evenodd" clip-rule="evenodd" d="M61.3807 15.655C60.602 14.9998 59.8266 14.3951 59.0479 13.8408C59.3395 14.0927 61.914 15.9574 61.7682 18.7799C61.7185 18.7799 62.156 17.1167 61.3807 15.655Z" fill="#595961"/>
<path opacity="0.62" fill-rule="evenodd" clip-rule="evenodd" d="M49.4851 20.6941C50.0683 20.0893 50.5519 19.4341 51.0854 18.7285C50.8932 18.93 49.2897 20.9964 46.4269 20.2403C46.4269 20.2403 48.0769 21.1478 49.4851 20.6941Z" fill="#595961"/>
<path opacity="0.62" fill-rule="evenodd" clip-rule="evenodd" d="M51.2812 18.3762C51.9604 17.8724 52.59 17.3682 53.2228 16.814C52.981 16.9653 50.9897 18.6282 48.223 17.4187C48.223 17.4187 49.8233 18.5777 51.2812 18.3762Z" fill="#595961"/>
<path opacity="0.62" fill-rule="evenodd" clip-rule="evenodd" d="M53.9026 16.7123C54.7276 16.4604 55.5063 16.158 56.2817 15.8557C55.9901 15.9562 53.5148 16.8633 51.0861 14.9482C51.1358 14.9482 52.3983 16.4604 53.9026 16.7123Z" fill="#595961"/>
<path opacity="0.62" fill-rule="evenodd" clip-rule="evenodd" d="M56.2813 15.806C56.9605 15.9069 57.6397 15.9574 58.319 16.0078C58.0771 15.9574 55.9398 15.806 54.7271 13.79C54.7271 13.79 55.2144 15.1508 56.2813 15.806Z" fill="#595961"/>
<path opacity="0.62" fill-rule="evenodd" clip-rule="evenodd" d="M59.0979 16.9137C59.5817 17.4683 60.1184 18.0226 60.6982 18.5264C60.506 18.325 58.8561 16.6618 59.2437 14.5957C59.194 14.5957 58.6606 15.7547 59.0979 16.9137Z" fill="#595961"/>
<path opacity="0.74" fill-rule="evenodd" clip-rule="evenodd" d="M64.972 31.7815C64.972 31.2269 64.4386 18.4765 59.1471 14.5962C58.1265 13.8401 57.0099 13.4873 55.8436 13.4873C54.9688 13.4873 54.0476 13.6888 53.0768 14.092C48.8522 15.7552 45.8901 20.2406 44.4355 27.0944C43.3189 32.2349 43.4646 36.8212 43.4646 37.0226C43.4646 37.174 43.6104 37.325 43.7562 37.325H43.8025C43.9483 37.325 44.0479 37.2244 44.0479 37.0731C44.0479 36.8716 43.5607 18.4765 53.3187 14.5457C55.4558 13.6888 57.3015 13.8401 58.8554 14.9991C63.9018 18.6783 64.4385 31.5296 64.4385 31.6806C64.4385 31.832 64.5844 31.983 64.7301 31.983C64.7301 31.983 64.7301 31.983 64.7765 31.983C64.8759 32.0334 64.972 31.9325 64.972 31.7815Z" fill="url(#paint0_linear_514_5322)"/>
<path fill-rule="evenodd" clip-rule="evenodd" d="M65.7975 25.4827C64.6809 20.0398 62.8354 16.3606 60.2642 14.4455C58.856 13.4379 57.3484 12.9842 55.6983 13.0851C57.0104 13.1856 58.2231 13.6393 59.3398 14.4455C61.9143 16.3105 63.7599 20.0398 64.8765 25.4827C65.6519 29.3128 65.7975 32.6389 65.7975 32.7902C65.7975 33.3949 65.506 33.8486 65.0189 33.9997C65.1183 34.0501 65.2145 34.0501 65.2642 34.0501C66.0892 34.151 66.7188 33.5964 66.6724 32.7902C66.7188 32.6389 66.5728 29.3633 65.7975 25.4827Z" fill="url(#paint1_linear_514_5322)"/>
<path fill-rule="evenodd" clip-rule="evenodd" d="M53.5642 16.5623C44.4358 20.2411 44.873 37.9306 44.873 38.132C44.873 38.7368 44.5814 39.1905 44.0944 39.3415C44.1938 39.392 44.2403 39.3919 44.3397 39.3919C44.3861 39.3919 44.4854 39.3919 44.5318 39.3919C45.2608 39.3919 45.7444 38.8377 45.7444 38.132C45.7444 37.9306 45.3105 20.2915 54.4356 16.6127C55.0685 16.3608 55.6515 16.2094 56.1849 16.159C55.4063 16.008 54.535 16.159 53.5642 16.5623Z" fill="url(#paint2_linear_514_5322)"/>
<path fill-rule="evenodd" clip-rule="evenodd" d="M67.3979 20.9462L26.2289 34.15C26.2289 34.15 24.4828 34.6541 24.0454 35.2084C23.608 35.7627 23.5119 37.325 23.5119 37.325L17.15 88.2261L64.9228 97.4992L68.614 20.8957C68.0805 20.7948 67.5437 20.8957 67.3979 20.9462Z" fill="url(#paint3_linear_514_5322)"/>
<path fill-rule="evenodd" clip-rule="evenodd" d="M81.6258 27.4974C81.6258 27.4974 81.5761 27.0941 81.3342 26.9431C81.1387 26.7918 80.8968 26.7918 80.8968 26.7918L74.1474 26.288L69.1971 21.1979C69.0016 21.0465 68.8062 20.946 68.5643 20.8955L64.8766 97.499L90.7508 91.7033L81.6258 27.4974Z" fill="url(#paint4_linear_514_5322)"/>
<path fill-rule="evenodd" clip-rule="evenodd" d="M50.4068 63.4807C49.6779 62.4727 48.8064 61.5656 47.9317 60.7591C47.0569 59.9529 46.1359 59.2977 45.2114 58.693C44.5819 58.2897 43.9987 57.8865 43.5117 57.4832C43.0279 57.0803 42.6402 56.677 42.3486 56.3242C42.057 55.9209 41.8151 55.5681 41.6693 55.1652C41.5235 54.7619 41.4737 54.3587 41.4737 53.9554C41.4737 53.4011 41.6196 52.8468 41.8151 52.3931C42.0073 51.9397 42.3486 51.5365 42.6865 51.1836C43.0775 50.8308 43.5116 50.5789 44.0484 50.3775C44.5818 50.1757 45.2113 50.0751 45.8905 50.0246C46.6195 49.9742 47.3485 50.0246 48.0277 50.0751C48.707 50.1252 49.3399 50.2766 49.9694 50.4276C50.5526 50.5789 51.1357 50.7804 51.6194 50.9822C52.1065 51.1837 52.5902 51.3851 52.9315 51.5869L56.1357 41.7091C55.652 41.4572 55.0688 41.205 54.4359 41.0539C53.7567 40.8521 53.0277 40.7011 52.2027 40.6002C51.3776 40.4997 50.5028 40.4492 49.5817 40.4492C48.6606 40.4492 47.6899 40.4997 46.6693 40.6507C44.4858 40.953 42.5408 41.5578 40.7946 42.4649C39.1446 43.3218 37.6866 44.4304 36.4739 45.7912C35.3076 47.1016 34.3864 48.6134 33.7071 50.327C33.0743 51.9902 32.6867 53.8548 32.5906 55.8705C32.5409 57.0803 32.637 58.1888 32.9285 59.1968C33.1704 60.2048 33.5614 61.1624 34.0948 62.0694C34.5786 62.9765 35.2114 63.7831 35.8907 64.5388C36.5699 65.2949 37.395 66.0005 38.22 66.6557C38.8992 67.1595 39.4825 67.6634 39.9695 68.1171C40.4533 68.5708 40.8443 69.0242 41.1326 69.5283C41.4242 69.9817 41.6196 70.4354 41.7654 70.9392C41.9112 71.393 41.9609 71.8968 41.9112 72.4009C41.9112 72.9048 41.7655 73.4086 41.57 73.8119C41.3778 74.2151 41.1326 74.6184 40.7449 74.9208C40.4069 75.2231 39.9696 75.4246 39.4825 75.5255C38.9988 75.6261 38.4156 75.6765 37.7828 75.5759C37.0571 75.475 36.328 75.2736 35.6488 74.9709C34.9695 74.719 34.2871 74.3662 33.6576 74.0133C33.028 73.6609 32.4449 73.2576 31.9578 72.9048C31.4244 72.552 30.9869 72.1487 30.649 71.8463L28.462 79.3557C28.8033 79.8595 29.2871 80.3132 29.8206 80.7666C30.3574 81.2203 30.987 81.6737 31.7159 82.1274C32.4449 82.5307 33.2202 82.9336 34.0453 83.2864C34.8703 83.6392 35.7947 83.9416 36.7158 84.1938H36.7655H36.8118H36.8616H36.9113C38.8994 84.6472 40.7946 84.7481 42.5905 84.4962C44.436 84.2439 46.1357 83.5888 47.5903 82.5811C49.0946 81.5227 50.3106 80.1114 51.2317 78.2468C52.1562 76.3821 52.6896 74.1142 52.7857 71.544C52.8354 69.9313 52.64 68.5203 52.2027 67.21C51.7653 65.6981 51.1358 64.5388 50.4068 63.4807Z" fill="url(#paint5_linear_514_5322)"/>
<path opacity="0.226763" fill-rule="evenodd" clip-rule="evenodd" d="M28.7764 79.7666C28.6638 79.6331 28.5577 79.4966 28.4616 79.3564L30.6485 71.8471C30.6783 71.8751 30.7115 71.9041 30.7446 71.9338C31.0693 72.224 31.4736 72.5854 31.9574 72.9055C32.4445 73.2583 33.0276 73.6616 33.6572 74.0144C34.2867 74.3669 34.9691 74.7197 35.6484 74.972C36.3276 75.2743 37.0567 75.4758 37.7823 75.5767C38.4152 75.6773 38.9984 75.6271 39.4821 75.5262C39.9692 75.4253 40.4065 75.2239 40.7445 74.9215C41.1321 74.6191 41.3774 74.2159 41.5696 73.8126C41.7651 73.4094 41.9107 72.9055 41.9107 72.4017C41.9604 71.8975 41.9107 71.3937 41.7649 70.94C41.6191 70.4362 41.4237 69.9825 41.1321 69.5291C40.8571 69.05 40.4926 68.6167 40.0387 68.1854C40.2772 68.4548 40.4794 68.7314 40.6484 69.0249C40.94 69.4786 41.1322 69.932 41.278 70.4362C41.4237 70.8895 41.4735 71.3937 41.4238 71.8975C41.4238 72.4017 41.278 72.9055 41.0858 73.3088C40.8903 73.7121 40.6484 74.115 40.2607 74.4174C39.9194 74.7197 39.4821 74.9215 38.9984 75.0221C38.5113 75.123 37.9281 75.1734 37.2986 75.0725C36.5696 74.972 35.8406 74.7702 35.1614 74.4678C34.4821 74.2159 33.8028 73.8631 33.17 73.5103C32.5404 73.1574 31.9574 72.7545 31.4736 72.4017C30.9866 72.0815 30.5823 71.7201 30.2576 71.43C30.2245 71.4003 30.1945 71.3713 30.1613 71.3433L27.9778 78.8523C28.1932 79.1731 28.4683 79.4735 28.7764 79.7666ZM35.9301 64.5854C35.7478 64.405 35.5722 64.222 35.4033 64.0357C34.724 63.2797 34.0945 62.4735 33.6074 61.5664C33.074 60.6589 32.6862 59.7014 32.4444 58.6937C32.1528 57.6857 32.0533 56.5768 32.103 55.3674C32.1991 53.3514 32.5902 51.4868 33.2197 49.8236C33.899 48.1103 34.8235 46.5985 35.9865 45.2881C37.2025 43.9273 38.657 42.8184 40.307 41.9618C42.0565 41.0547 43.9982 40.45 46.1817 40.1476C47.2023 39.9962 48.1732 39.9458 49.0943 39.9458C50.0187 39.9458 50.8935 39.9962 51.7185 40.0971C52.5435 40.198 53.2725 40.3491 53.9518 40.5509C54.5813 40.7019 55.1645 40.9538 55.6515 41.2057L55.5753 41.4415C55.2241 41.2888 54.8397 41.1513 54.4355 41.0547C53.7563 40.8532 53.0273 40.7019 52.2022 40.601C51.3772 40.5004 50.5024 40.45 49.5813 40.45C48.6602 40.45 47.6894 40.5004 46.6689 40.6514C44.4854 40.9538 42.5404 41.5585 40.7942 42.466C39.1441 43.3226 37.6862 44.4311 36.4735 45.792C35.3072 47.1023 34.386 48.6141 33.7067 50.3278C33.0739 51.9909 32.6863 53.8556 32.5902 55.8712C32.5405 57.081 32.6365 58.1896 32.9281 59.1976C33.17 60.2056 33.5609 61.1631 34.0944 62.0702C34.5782 62.9773 35.211 63.7838 35.8902 64.5396C35.9035 64.5547 35.9168 64.5702 35.9301 64.5854ZM42.5237 56.5313C42.7888 56.8311 43.1202 57.1575 43.5112 57.4839C43.9983 57.8872 44.5815 58.2905 45.211 58.6937C46.1354 59.2985 47.0565 59.9536 47.9313 60.7598C48.1864 60.9946 48.4382 61.2376 48.69 61.4895C48.2858 61.0549 47.8649 60.6438 47.4441 60.256C46.5726 59.4495 45.6484 58.7943 44.7273 58.1896C44.0944 57.7863 43.5112 57.3834 43.0275 56.9801C42.8452 56.8298 42.6794 56.6794 42.5237 56.5313Z" fill="black"/>
<path opacity="0.41" fill-rule="evenodd" clip-rule="evenodd" d="M75.7972 83.2371L74.1472 26.2883L73.8556 25.9859L74.6344 82.4305C74.6344 82.4305 67.7888 93.2154 66.7683 92.9131C65.264 92.4597 69.7304 21.7525 69.7304 21.7525L69.2434 21.2487C69.0513 21.0973 68.8061 20.9967 68.6139 20.9463L64.9724 96.4913L64.9227 97.5498L66.185 95.8866L75.7972 83.2371Z" fill="url(#paint6_linear_514_5322)"/>
<path fill-rule="evenodd" clip-rule="evenodd" d="M57.202 24.2223C56.6221 26.5908 55.8933 28.8083 55.3598 30.1691C55.0186 30.9756 55.4063 31.7313 56.1352 31.8322C56.9139 31.9331 57.7853 31.3785 58.0769 30.5723C58.1266 30.421 59.4353 27.1454 60.2636 23.2648V23.2144L57.202 24.2223Z" fill="url(#paint7_linear_514_5322)"/>
<path fill-rule="evenodd" clip-rule="evenodd" d="M35.3075 31.2775C34.6283 32.7893 33.949 34.0997 33.4619 35.0068C33.0279 35.7629 33.2697 36.569 33.9986 36.7705C34.7243 37.0228 35.695 36.5691 36.1324 35.813C36.1821 35.7124 37.5905 33.243 38.8529 30.1182L35.3075 31.2775Z" fill="url(#paint8_linear_514_5322)"/>
<path opacity="0.32" fill-rule="evenodd" clip-rule="evenodd" d="M64.9227 97.4989L75.7973 83.2363L90.8502 91.7032L64.9227 97.4989Z" fill="url(#paint9_linear_514_5322)"/>
<path opacity="0.19" fill-rule="evenodd" clip-rule="evenodd" d="M64.9227 97.4989L75.7012 83.2363L90.8502 91.7032L64.9227 97.4989Z" fill="url(#paint10_linear_514_5322)"/>
<path opacity="0.19" fill-rule="evenodd" clip-rule="evenodd" d="M64.9227 97.4989L75.7012 83.2363L90.8502 91.7032L64.9227 97.4989Z" fill="url(#paint11_linear_514_5322)"/>
<path opacity="0.6" fill-rule="evenodd" clip-rule="evenodd" d="M54.3395 57.5852C59.9723 65.4975 63.7593 74.0649 65.6513 82.3805L68.6136 20.8458C68.0801 20.7452 67.5433 20.8458 67.3976 20.8962L26.2285 34.1508C26.2285 34.1508 25.8408 34.2514 25.3537 34.4532C35.7942 38.1824 46.2316 46.1956 54.3395 57.5852Z" fill="url(#paint12_linear_514_5322)"/>
<path fill-rule="evenodd" clip-rule="evenodd" d="M81.3802 26.994C81.6254 27.1958 81.6255 27.4982 81.6255 27.4982L90.6544 91.6533L75.7971 83.1867L74.147 26.2383L80.8004 26.7421C80.8467 26.7926 81.1383 26.7926 81.3802 26.994Z" fill="url(#paint13_linear_514_5322)"/>
<path fill-rule="evenodd" clip-rule="evenodd" d="M80.3135 27.1455C80.3135 27.1455 80.6051 27.1456 80.847 27.3975C81.0889 27.5993 81.1384 27.9016 81.1384 27.9016L90.025 91.3514L90.7043 91.7547L81.6719 27.5488C81.6719 27.5488 81.6255 27.2465 81.43 27.045C81.1882 26.8432 80.847 26.8432 80.847 26.8432L74.1969 26.3394L80.3135 27.1455Z" fill="url(#paint14_linear_514_5322)"/>
<path fill-rule="evenodd" clip-rule="evenodd" d="M17.15 88.2252L64.9228 97.4982L67.2554 44.9844L23.0909 46.2398L17.15 88.2252Z" fill="url(#paint15_linear_514_5322)"/>
<path opacity="0.3" fill-rule="evenodd" clip-rule="evenodd" d="M32.8321 34.8843C32.398 36.1092 32.8254 37.3962 33.7929 37.7596C34.7571 38.1226 35.8903 37.4242 36.3277 36.1996C36.7617 34.975 36.3311 33.6877 35.3669 33.3247C34.4027 32.9613 33.2661 33.6597 32.8321 34.8843Z" fill="white"/>
<path opacity="0.89" fill-rule="evenodd" clip-rule="evenodd" d="M32.7793 34.3031C32.3453 35.5277 32.7759 36.815 33.7401 37.178C34.7043 37.5414 35.8409 36.843 36.2749 35.6184C36.709 34.3934 36.2816 33.1061 35.3141 32.7431C34.3499 32.3797 33.2167 33.0781 32.7793 34.3031Z" fill="black"/>
<path fill-rule="evenodd" clip-rule="evenodd" d="M74.197 26.288L69.2434 21.1979C69.0513 21.0465 68.8061 20.946 68.6139 20.8955L64.9227 97.499L75.847 83.1859L74.197 26.288Z" fill="url(#paint16_linear_514_5322)"/>
<path fill-rule="evenodd" clip-rule="evenodd" d="M67.3979 20.9471L26.2289 34.1509C26.2289 34.1509 24.4827 34.6551 24.0454 35.2094C23.9957 35.2598 23.9955 35.3103 23.9491 35.3607L65.4562 23.4669C65.7975 23.366 66.6226 23.0637 66.5265 25.533L64.0016 97.3992L64.8764 97.5506L68.5642 20.9471C68.0804 20.7958 67.5437 20.8967 67.3979 20.9471Z" fill="url(#paint17_linear_514_5322)"/>
<path fill-rule="evenodd" clip-rule="evenodd" d="M67.3979 20.9471L26.2289 34.1509C26.2289 34.1509 24.4827 34.6551 24.0454 35.2094C23.9957 35.2598 23.9955 35.3103 23.9491 35.3607L33.5613 32.5887L66.6225 21.9551C66.7683 21.9047 67.3019 21.8038 67.8353 21.9047L64.1939 97.3992L64.8764 97.5506L68.5642 20.9471C68.0804 20.7958 67.5437 20.8967 67.3979 20.9471Z" fill="url(#paint18_linear_514_5322)"/>
<path opacity="0.32" fill-rule="evenodd" clip-rule="evenodd" d="M77.9844 84.4464L75.7974 83.1865L64.8766 97.4992L65.4564 97.3479C65.4564 97.3479 75.0718 84.4969 75.9432 84.0936C76.5761 83.8417 77.9844 84.4464 77.9844 84.4464Z" fill="url(#paint19_linear_514_5322)"/>
<path opacity="0.57" fill-rule="evenodd" clip-rule="evenodd" d="M64.9227 97.4992L75.847 83.1865C75.7973 83.237 68.9054 91.0483 64.9227 97.4992Z" fill="url(#paint20_linear_514_5322)"/>
<path opacity="0.46" fill-rule="evenodd" clip-rule="evenodd" d="M90.85 91.7032L75.8468 83.2363C75.7971 83.2363 77.5467 83.5387 90.85 91.7032Z" fill="url(#paint21_linear_514_5322)"/>
<path opacity="0.3" fill-rule="evenodd" clip-rule="evenodd" d="M55.029 29.8593C54.5916 31.0842 55.0224 32.3715 55.9866 32.7349C56.9541 33.0982 58.0873 32.3999 58.5214 31.1752C58.9588 29.9503 58.528 28.663 57.5638 28.2996C56.5996 27.9366 55.4631 28.6346 55.029 29.8593Z" fill="white"/>
<path opacity="0.89" fill-rule="evenodd" clip-rule="evenodd" d="M54.9759 29.2803C54.5418 30.5052 54.9727 31.7925 55.9369 32.1559C56.9011 32.5189 58.0374 31.8209 58.4715 30.5959C58.9056 29.3713 58.4781 28.084 57.5139 27.7207C56.5464 27.3573 55.4133 28.0557 54.9759 29.2803Z" fill="black"/>
<path fill-rule="evenodd" clip-rule="evenodd" d="M34.5322 36.7714C34.4825 36.7714 34.3863 36.7714 34.3366 36.7714C33.5613 36.6708 33.0279 35.9148 33.124 35.0581C33.2201 34.2516 35.9867 15.4031 47.3483 11.1195C50.2111 10.0611 52.6398 10.2626 54.4854 11.8252C56.7186 13.6898 57.9313 17.4191 58.1268 22.862C58.2726 26.6921 57.8354 30.0182 57.8354 30.1695C57.7393 30.9757 57.0103 31.5808 56.2317 31.4294C55.4563 31.3285 54.8731 30.5728 55.0189 29.7662C55.4563 26.3393 55.94 16.9152 52.6895 14.1936C51.669 13.337 50.261 13.2361 48.369 13.9417C38.611 17.6205 36.0364 35.31 36.0364 35.461C35.8409 36.2171 35.2611 36.7714 34.5322 36.7714Z" fill="#595961"/>
<path opacity="0.46" fill-rule="evenodd" clip-rule="evenodd" d="M53.9025 11.9253C52.2027 10.5144 49.9695 10.3129 47.2989 11.2705C42.6867 13.0342 38.8032 17.6706 36.1326 24.6758C34.1445 29.8667 33.4621 34.5536 33.4621 34.7554C33.4157 35.0073 33.5118 35.2592 33.6576 35.461C33.8034 35.6625 33.9988 35.8138 34.2407 35.8138C34.2871 35.8138 34.3368 35.8138 34.3865 35.8138C34.8239 35.8138 35.2114 35.461 35.2612 35.0073C35.3075 34.8058 37.8822 16.8139 47.9317 13.0342C49.9695 12.2781 51.6194 12.379 52.7858 13.387C56.2317 16.2597 55.748 25.9861 55.3106 29.4635C55.2609 29.9676 55.6023 30.4715 56.086 30.5219C56.5731 30.5724 57.0568 30.2196 57.1065 29.7157C57.1562 29.1611 58.856 16.0582 53.9025 11.9253Z" fill="#B2B2C2"/>
<path opacity="0.81" fill-rule="evenodd" clip-rule="evenodd" d="M34.3365 35.2595C34.2868 35.2595 34.2869 35.2595 34.2405 35.2595C33.9489 35.2091 33.7533 34.9067 33.8031 34.6043C33.8528 34.4025 34.4824 29.8166 36.4738 24.6256C39.1444 17.7214 42.9315 13.1351 47.4444 11.4215C50.0189 10.4639 52.1064 10.6657 53.7067 11.9761C58.4648 15.9573 56.8147 28.8591 56.7186 29.4133C56.6689 29.7157 56.4271 29.9172 56.0858 29.8671C55.7975 29.8166 55.6021 29.5647 55.6021 29.2119C55.6021 29.0605 57.2521 16.411 52.9811 12.7823C51.7187 11.8248 49.9693 11.7242 47.8355 12.5304C37.5904 16.411 34.9198 34.6043 34.9198 34.8058C34.8701 35.0577 34.6281 35.2595 34.3365 35.2595Z" fill="#B2B2C2"/>
<path opacity="0.42" fill-rule="evenodd" clip-rule="evenodd" d="M40.7447 20.8454C41.2782 20.0896 41.7652 19.3335 42.2489 18.5273C42.0568 18.7793 40.6486 21.4 37.7361 20.9967C37.6864 20.9967 39.3862 21.551 40.7447 20.8454Z" fill="#595961"/>
<path opacity="0.42" fill-rule="evenodd" clip-rule="evenodd" d="M39.0947 24.07C39.5321 23.2634 39.9694 22.4068 40.3073 21.6006C40.1615 21.903 39.1907 24.6242 36.1324 24.6242C36.1324 24.6242 37.8323 24.9771 39.0947 24.07Z" fill="#595961"/>
<path opacity="0.42" fill-rule="evenodd" clip-rule="evenodd" d="M37.8322 27.3974C38.2198 26.5404 38.5115 25.6838 38.8031 24.8271C38.6573 25.1295 38.1239 27.9012 34.9198 28.2541C34.9198 28.2036 36.6659 28.4054 37.8322 27.3974Z" fill="#595961"/>
<path opacity="0.62" fill-rule="evenodd" clip-rule="evenodd" d="M57.2518 17.5696C57.0099 16.6622 56.768 15.8055 56.4267 14.8984C56.5228 15.2008 57.4938 18.0734 55.5057 20.1395C55.5057 20.1395 56.9602 19.1319 57.2518 17.5696Z" fill="#595961"/>
<path opacity="0.62" fill-rule="evenodd" clip-rule="evenodd" d="M55.3603 13.0339C54.681 12.3787 53.9984 11.774 53.3191 11.2197C53.5643 11.4716 55.844 13.3363 55.2145 16.1585C55.1648 16.1585 55.8938 14.4953 55.3603 13.0339Z" fill="#595961"/>
<path opacity="0.62" fill-rule="evenodd" clip-rule="evenodd" d="M57.7391 22.2061C57.6894 21.299 57.5437 20.3415 57.3979 19.4341C57.3979 19.7869 57.885 22.7604 55.5523 24.3731C55.5523 24.3731 57.1559 23.6675 57.7391 22.2061Z" fill="#595961"/>
<path opacity="0.62" fill-rule="evenodd" clip-rule="evenodd" d="M57.9812 26.9441C58.0309 26.037 58.0309 25.0795 57.9812 24.1724C57.9812 24.5252 58.0308 27.4987 55.5523 28.8592C55.5523 28.8091 57.2522 28.3049 57.9812 26.9441Z" fill="#595961"/>
<path opacity="0.42" fill-rule="evenodd" clip-rule="evenodd" d="M36.7155 31.076C37.0071 30.1689 37.2026 29.2618 37.3948 28.4048C37.2987 28.7072 36.8614 31.5798 33.8992 32.2854C33.9489 32.2854 35.695 32.235 36.7155 31.076Z" fill="#595961"/>
<path opacity="0.42" fill-rule="evenodd" clip-rule="evenodd" d="M42.5903 18.0725C43.2695 17.4677 43.9023 16.8126 44.4854 16.1069C44.2402 16.3084 42.2987 18.3748 39.5817 17.6188C39.6281 17.6188 41.1324 18.5262 42.5903 18.0725Z" fill="#595961"/>
<path opacity="0.42" fill-rule="evenodd" clip-rule="evenodd" d="M44.7736 15.7556C45.5522 15.2518 46.2812 14.7476 47.0069 14.1934C46.7186 14.3447 44.4853 16.0075 41.9108 14.7981C41.9108 14.7981 43.2693 15.9571 44.7736 15.7556Z" fill="#595961"/>
<path opacity="0.62" fill-rule="evenodd" clip-rule="evenodd" d="M47.7358 14.0927C48.6105 13.8404 49.4356 13.5381 50.2606 13.2357C49.9691 13.3366 47.3482 14.2437 45.2111 12.3286C45.2111 12.3286 46.2315 13.8404 47.7358 14.0927Z" fill="#595961"/>
<path opacity="0.62" fill-rule="evenodd" clip-rule="evenodd" d="M50.2111 13.1854C50.8937 13.2863 51.573 13.3368 52.2523 13.3872C52.0104 13.3368 49.9228 13.1854 48.9983 11.1694C49.048 11.1694 49.29 12.5302 50.2111 13.1854Z" fill="#595961"/>
<path opacity="0.62" fill-rule="evenodd" clip-rule="evenodd" d="M52.8352 14.2934C53.2726 14.8477 53.7067 15.402 54.1441 15.9062C53.9983 15.7044 52.6397 14.0415 53.319 11.9751C53.3687 11.9751 52.6397 13.1344 52.8352 14.2934Z" fill="#595961"/>
<path fill-rule="evenodd" clip-rule="evenodd" d="M56.1848 29.1611C56.2311 28.6068 57.8846 15.8564 53.2724 11.9758C52.3976 11.22 51.3308 10.8672 50.1645 10.8672C49.2897 10.8672 48.3189 11.0687 47.2984 11.4719C42.8319 13.1351 39.0943 17.6204 36.4734 24.4743C34.482 29.6148 33.8524 34.201 33.8027 34.4025C33.8027 34.5535 33.899 34.7049 34.0448 34.7049H34.0943C34.2401 34.7049 34.3362 34.604 34.3362 34.453C34.3859 34.2512 37.0068 15.8564 47.444 11.9253C49.6772 11.0687 51.5725 11.22 52.931 12.379C57.3478 16.0578 55.6979 28.9092 55.6515 29.0605C55.6515 29.2115 55.7476 29.3629 55.8933 29.3629C55.8933 29.3629 55.8933 29.3629 55.9397 29.3629C56.0854 29.4133 56.1848 29.3124 56.1848 29.1611Z" fill="url(#paint22_linear_514_5322)"/>
<path fill-rule="evenodd" clip-rule="evenodd" d="M58.1266 22.8611C57.9311 17.4182 56.7184 13.739 54.4851 11.824C53.2724 10.8163 51.8147 10.3626 50.1646 10.4635C51.427 10.564 52.59 11.0178 53.5642 11.824C55.7974 13.6889 57.01 17.4182 57.2022 22.8611C57.3479 26.6913 56.914 30.0173 56.914 30.1686C56.8146 30.7734 56.4269 31.2271 55.9398 31.3781C56.0392 31.4285 56.0855 31.4285 56.1849 31.4285C56.9603 31.5294 57.6893 30.9748 57.7854 30.1686C57.8351 30.0173 58.2724 26.7417 58.1266 22.8611Z" fill="url(#paint23_linear_514_5322)"/>
<path fill-rule="evenodd" clip-rule="evenodd" d="M47.3981 13.9413C37.6401 17.6201 35.0656 35.3096 35.0656 35.5111C34.9695 36.1158 34.5784 36.5695 34.0947 36.7205C34.1908 36.771 34.2405 36.771 34.3366 36.771C34.3863 36.771 34.4824 36.771 34.5321 36.771C35.2611 36.771 35.8409 36.2167 35.9403 35.5111C35.9867 35.3096 38.5115 17.6706 48.2695 13.9914C48.952 13.7395 49.532 13.5885 50.0688 13.538C49.3398 13.4371 48.4153 13.5885 47.3981 13.9413Z" fill="url(#paint24_linear_514_5322)"/>
<defs>
<linearGradient id="paint0_linear_514_5322" x1="45.9961" y1="13.6011" x2="44.4735" y2="34.3314" gradientUnits="userSpaceOnUse">
<stop stop-color="white" stop-opacity="0.65"/>
<stop offset="1" stop-color="white" stop-opacity="0.01"/>
</linearGradient>
<linearGradient id="paint1_linear_514_5322" x1="57.1231" y1="25.4675" x2="67.8431" y2="34.8569" gradientUnits="userSpaceOnUse">
<stop stop-opacity="0.01"/>
<stop offset="1" stop-opacity="0.4"/>
</linearGradient>
<linearGradient id="paint2_linear_514_5322" x1="52.8252" y1="36.3294" x2="64.172" y2="25.7605" gradientUnits="userSpaceOnUse">
<stop stop-opacity="0.01"/>
<stop offset="1" stop-opacity="0.4"/>
</linearGradient>
<linearGradient id="paint3_linear_514_5322" x1="38.3824" y1="5.48665" x2="-5.68967" y2="56.2673" gradientUnits="userSpaceOnUse">
<stop stop-color="#B8D26E"/>
<stop offset="1" stop-color="#7FB525"/>
</linearGradient>
<linearGradient id="paint4_linear_514_5322" x1="98.6698" y1="18.1996" x2="74.4822" y2="18.6488" gradientUnits="userSpaceOnUse">
<stop stop-color="#B4E034"/>
<stop offset="1" stop-color="#60A927"/>
</linearGradient>
<linearGradient id="paint5_linear_514_5322" x1="26.7258" y1="52.0601" x2="6.89513" y2="100.352" gradientUnits="userSpaceOnUse">
<stop stop-color="white"/>
<stop offset="1" stop-color="#CECEEB"/>
</linearGradient>
<linearGradient id="paint6_linear_514_5322" x1="55.1581" y1="170.987" x2="86.5657" y2="170.924" gradientUnits="userSpaceOnUse">
<stop stop-color="#1D1D1B" stop-opacity="0.5"/>
<stop offset="0.038033" stop-color="#1D1D1B" stop-opacity="0.4837"/>
<stop offset="0.4243" stop-color="#1D1D1B" stop-opacity="0.3185"/>
<stop offset="1" stop-color="#1D1D1B" stop-opacity="0.01"/>
</linearGradient>
<linearGradient id="paint7_linear_514_5322" x1="58.8057" y1="19.832" x2="53.5952" y2="22.6363" gradientUnits="userSpaceOnUse">
<stop stop-opacity="0.01"/>
<stop offset="1" stop-opacity="0.4"/>
</linearGradient>
<linearGradient id="paint8_linear_514_5322" x1="36.9609" y1="28.1493" x2="33.2981" y2="31.2971" gradientUnits="userSpaceOnUse">
<stop stop-opacity="0.01"/>
<stop offset="1" stop-opacity="0.4"/>
</linearGradient>
<linearGradient id="paint9_linear_514_5322" x1="72.6894" y1="91.7408" x2="73.0602" y2="96.629" gradientUnits="userSpaceOnUse">
<stop stop-opacity="0.01"/>
<stop offset="1" stop-opacity="0.4"/>
</linearGradient>
<linearGradient id="paint10_linear_514_5322" x1="64.0314" y1="84.5846" x2="64.8912" y2="97.2937" gradientUnits="userSpaceOnUse">
<stop stop-color="white" stop-opacity="0.5"/>
<stop offset="0.0896271" stop-color="white" stop-opacity="0.4552"/>
<stop offset="1" stop-color="white" stop-opacity="0.01"/>
</linearGradient>
<linearGradient id="paint11_linear_514_5322" x1="62.378" y1="86.5614" x2="63.9073" y2="100.137" gradientUnits="userSpaceOnUse">
<stop stop-opacity="0.01"/>
<stop offset="1" stop-opacity="0.4"/>
</linearGradient>
<linearGradient id="paint12_linear_514_5322" x1="56.3772" y1="8.45309" x2="17.1557" y2="31.1372" gradientUnits="userSpaceOnUse">
<stop stop-color="white" stop-opacity="0.5"/>
<stop offset="1" stop-color="white" stop-opacity="0.01"/>
</linearGradient>
<linearGradient id="paint13_linear_514_5322" x1="63.9451" y1="127.008" x2="98.5635" y2="127.078" gradientUnits="userSpaceOnUse">
<stop stop-color="#1D1D1B" stop-opacity="0.5"/>
<stop offset="0.0896271" stop-color="#1D1D1B" stop-opacity="0.4552"/>
<stop offset="1" stop-color="#1D1D1B" stop-opacity="0.01"/>
</linearGradient>
<linearGradient id="paint14_linear_514_5322" x1="88.7362" y1="24.4295" x2="83.8184" y2="25.6345" gradientUnits="userSpaceOnUse">
<stop stop-color="white" stop-opacity="0.4"/>
<stop offset="1" stop-color="white" stop-opacity="0.01"/>
</linearGradient>
<linearGradient id="paint15_linear_514_5322" x1="44.6149" y1="98.0591" x2="47.172" y2="85.7307" gradientUnits="userSpaceOnUse">
<stop stop-color="#1D1D1B" stop-opacity="0.5"/>
<stop offset="0.0896271" stop-color="#1D1D1B" stop-opacity="0.4552"/>
<stop offset="1" stop-color="#1D1D1B" stop-opacity="0.01"/>
</linearGradient>
<linearGradient id="paint16_linear_514_5322" x1="59.3993" y1="169.418" x2="90.9196" y2="169.445" gradientUnits="userSpaceOnUse">
<stop stop-color="#1D1D1B" stop-opacity="0.5"/>
<stop offset="1" stop-color="#1D1D1B" stop-opacity="0.01"/>
</linearGradient>
<linearGradient id="paint17_linear_514_5322" x1="30.5958" y1="16.506" x2="15.3085" y2="75.2394" gradientUnits="userSpaceOnUse">
<stop stop-color="white" stop-opacity="0.5"/>
<stop offset="1" stop-color="white" stop-opacity="0.01"/>
</linearGradient>
<linearGradient id="paint18_linear_514_5322" x1="30.5958" y1="16.506" x2="15.3085" y2="75.2394" gradientUnits="userSpaceOnUse">
<stop stop-color="white" stop-opacity="0.5"/>
<stop offset="1" stop-color="white" stop-opacity="0.01"/>
</linearGradient>
<linearGradient id="paint19_linear_514_5322" x1="67.6963" y1="78.0737" x2="55.6131" y2="94.7047" gradientUnits="userSpaceOnUse">
<stop stop-color="white" stop-opacity="0.5"/>
<stop offset="0.0896271" stop-color="white" stop-opacity="0.4552"/>
<stop offset="1" stop-color="white" stop-opacity="0.01"/>
</linearGradient>
<linearGradient id="paint20_linear_514_5322" x1="71.3408" y1="81.8973" x2="70.1444" y2="84.579" gradientUnits="userSpaceOnUse">
<stop stop-opacity="0.01"/>
<stop offset="1" stop-opacity="0.4"/>
</linearGradient>
<linearGradient id="paint21_linear_514_5322" x1="83.2059" y1="85.4429" x2="83.1469" y2="86.1637" gradientUnits="userSpaceOnUse">
<stop stop-opacity="0.01"/>
<stop offset="1" stop-opacity="0.4"/>
</linearGradient>
<linearGradient id="paint22_linear_514_5322" x1="39.6939" y1="9.17071" x2="34.4703" y2="29.8066" gradientUnits="userSpaceOnUse">
<stop stop-color="white" stop-opacity="0.65"/>
<stop offset="1" stop-color="white" stop-opacity="0.01"/>
</linearGradient>
<linearGradient id="paint23_linear_514_5322" x1="51.3839" y1="21.0743" x2="60.4707" y2="30.3126" gradientUnits="userSpaceOnUse">
<stop stop-opacity="0.01"/>
<stop offset="1" stop-opacity="0.4"/>
</linearGradient>
<linearGradient id="paint24_linear_514_5322" x1="45.5757" y1="34.6791" x2="58.1305" y2="21.7854" gradientUnits="userSpaceOnUse">
<stop stop-opacity="0.01"/>
<stop offset="1" stop-opacity="0.4"/>
</linearGradient>
</defs>
</svg>
