<svg width="150" height="150" viewBox="0 0 150 150" fill="none" xmlns="http://www.w3.org/2000/svg">
<g style="mix-blend-mode:difference" opacity="0.7">
<g clip-path="url(#clip0_162_14518)">
<circle cx="1.5" cy="1.5" r="1.5" fill="white"/>
<circle cx="10.5" cy="1.5" r="1.5" fill="white"/>
<circle cx="19.5" cy="1.5" r="1.5" fill="white"/>
<circle cx="28.5" cy="1.5" r="1.5" fill="white"/>
<circle cx="37.5" cy="1.5" r="1.5" fill="white"/>
<circle cx="46.5" cy="1.5" r="1.5" fill="white"/>
<circle cx="55.5" cy="1.5" r="1.5" fill="white"/>
<circle cx="64.5" cy="1.5" r="1.5" fill="white"/>
<circle cx="73.5" cy="1.5" r="1.5" fill="white"/>
<circle cx="82.5" cy="1.5" r="1.5" fill="white"/>
<circle cx="91.5" cy="1.5" r="1.5" fill="white"/>
<circle cx="100.5" cy="1.5" r="1.5" fill="white"/>
<circle cx="109.5" cy="1.5" r="1.5" fill="white"/>
<circle cx="118.5" cy="1.5" r="1.5" fill="white"/>
<circle cx="127.5" cy="1.5" r="1.5" fill="white"/>
<circle cx="136.5" cy="1.5" r="1.5" fill="white"/>
<circle cx="145.5" cy="1.5" r="1.5" fill="white"/>
<circle cx="1.5" cy="10.5" r="1.5" fill="white"/>
<circle cx="10.5" cy="10.5" r="1.5" fill="white"/>
<circle cx="19.5" cy="10.5" r="1.5" fill="white"/>
<circle cx="28.5" cy="10.5" r="1.5" fill="white"/>
<circle cx="37.5" cy="10.5" r="1.5" fill="white"/>
<circle cx="46.5" cy="10.5" r="1.5" fill="white"/>
<circle cx="55.5" cy="10.5" r="1.5" fill="white"/>
<circle cx="64.5" cy="10.5" r="1.5" fill="white"/>
<circle cx="73.5" cy="10.5" r="1.5" fill="white"/>
<circle cx="82.5" cy="10.5" r="1.5" fill="white"/>
<circle cx="91.5" cy="10.5" r="1.5" fill="white"/>
<circle cx="100.5" cy="10.5" r="1.5" fill="white"/>
<circle cx="109.5" cy="10.5" r="1.5" fill="white"/>
<circle cx="118.5" cy="10.5" r="1.5" fill="white"/>
<circle cx="127.5" cy="10.5" r="1.5" fill="white"/>
<circle cx="136.5" cy="10.5" r="1.5" fill="white"/>
<circle cx="145.5" cy="10.5" r="1.5" fill="white"/>
<circle cx="1.5" cy="19.5" r="1.5" fill="white"/>
<circle cx="10.5" cy="19.5" r="1.5" fill="white"/>
<circle cx="19.5" cy="19.5" r="1.5" fill="white"/>
<circle cx="28.5" cy="19.5" r="1.5" fill="white"/>
<circle cx="37.5" cy="19.5" r="1.5" fill="white"/>
<circle cx="46.5" cy="19.5" r="1.5" fill="white"/>
<circle cx="55.5" cy="19.5" r="1.5" fill="white"/>
<circle cx="64.5" cy="19.5" r="1.5" fill="white"/>
<circle cx="73.5" cy="19.5" r="1.5" fill="white"/>
<circle cx="82.5" cy="19.5" r="1.5" fill="white"/>
<circle cx="91.5" cy="19.5" r="1.5" fill="white"/>
<circle cx="100.5" cy="19.5" r="1.5" fill="white"/>
<circle cx="109.5" cy="19.5" r="1.5" fill="white"/>
<circle cx="118.5" cy="19.5" r="1.5" fill="white"/>
<circle cx="127.5" cy="19.5" r="1.5" fill="white"/>
<circle cx="136.5" cy="19.5" r="1.5" fill="white"/>
<circle cx="145.5" cy="19.5" r="1.5" fill="white"/>
<circle cx="1.5" cy="28.5" r="1.5" fill="white"/>
<circle cx="10.5" cy="28.5" r="1.5" fill="white"/>
<circle cx="19.5" cy="28.5" r="1.5" fill="white"/>
<circle cx="28.5" cy="28.5" r="1.5" fill="white"/>
<circle cx="37.5" cy="28.5" r="1.5" fill="white"/>
<circle cx="46.5" cy="28.5" r="1.5" fill="white"/>
<circle cx="55.5" cy="28.5" r="1.5" fill="white"/>
<circle cx="64.5" cy="28.5" r="1.5" fill="white"/>
<circle cx="73.5" cy="28.5" r="1.5" fill="white"/>
<circle cx="82.5" cy="28.5" r="1.5" fill="white"/>
<circle cx="91.5" cy="28.5" r="1.5" fill="white"/>
<circle cx="100.5" cy="28.5" r="1.5" fill="white"/>
<circle cx="109.5" cy="28.5" r="1.5" fill="white"/>
<circle cx="118.5" cy="28.5" r="1.5" fill="white"/>
<circle cx="127.5" cy="28.5" r="1.5" fill="white"/>
<circle cx="136.5" cy="28.5" r="1.5" fill="white"/>
<circle cx="145.5" cy="28.5" r="1.5" fill="white"/>
<circle cx="1.5" cy="37.5" r="1.5" fill="white"/>
<circle cx="10.5" cy="37.5" r="1.5" fill="white"/>
<circle cx="19.5" cy="37.5" r="1.5" fill="white"/>
<circle cx="28.5" cy="37.5" r="1.5" fill="white"/>
<circle cx="37.5" cy="37.5" r="1.5" fill="white"/>
<circle cx="46.5" cy="37.5" r="1.5" fill="white"/>
<circle cx="55.5" cy="37.5" r="1.5" fill="white"/>
<circle cx="64.5" cy="37.5" r="1.5" fill="white"/>
<circle cx="73.5" cy="37.5" r="1.5" fill="white"/>
<circle cx="82.5" cy="37.5" r="1.5" fill="white"/>
<circle cx="91.5" cy="37.5" r="1.5" fill="white"/>
<circle cx="100.5" cy="37.5" r="1.5" fill="white"/>
<circle cx="109.5" cy="37.5" r="1.5" fill="white"/>
<circle cx="118.5" cy="37.5" r="1.5" fill="white"/>
<circle cx="127.5" cy="37.5" r="1.5" fill="white"/>
<circle cx="136.5" cy="37.5" r="1.5" fill="white"/>
<circle cx="145.5" cy="37.5" r="1.5" fill="white"/>
<circle cx="1.5" cy="46.5" r="1.5" fill="white"/>
<circle cx="10.5" cy="46.5" r="1.5" fill="white"/>
<circle cx="19.5" cy="46.5" r="1.5" fill="white"/>
<circle cx="28.5" cy="46.5" r="1.5" fill="white"/>
<circle cx="37.5" cy="46.5" r="1.5" fill="white"/>
<circle cx="46.5" cy="46.5" r="1.5" fill="white"/>
<circle cx="55.5" cy="46.5" r="1.5" fill="white"/>
<circle cx="64.5" cy="46.5" r="1.5" fill="white"/>
<circle cx="73.5" cy="46.5" r="1.5" fill="white"/>
<circle cx="82.5" cy="46.5" r="1.5" fill="white"/>
<circle cx="91.5" cy="46.5" r="1.5" fill="white"/>
<circle cx="100.5" cy="46.5" r="1.5" fill="white"/>
<circle cx="109.5" cy="46.5" r="1.5" fill="white"/>
<circle cx="118.5" cy="46.5" r="1.5" fill="white"/>
<circle cx="127.5" cy="46.5" r="1.5" fill="white"/>
<circle cx="136.5" cy="46.5" r="1.5" fill="white"/>
<circle cx="145.5" cy="46.5" r="1.5" fill="white"/>
<circle cx="1.5" cy="55.5" r="1.5" fill="white"/>
<circle cx="10.5" cy="55.5" r="1.5" fill="white"/>
<circle cx="19.5" cy="55.5" r="1.5" fill="white"/>
<circle cx="28.5" cy="55.5" r="1.5" fill="white"/>
<circle cx="37.5" cy="55.5" r="1.5" fill="white"/>
<circle cx="46.5" cy="55.5" r="1.5" fill="white"/>
<circle cx="55.5" cy="55.5" r="1.5" fill="white"/>
<circle cx="64.5" cy="55.5" r="1.5" fill="white"/>
<circle cx="73.5" cy="55.5" r="1.5" fill="white"/>
<circle cx="82.5" cy="55.5" r="1.5" fill="white"/>
<circle cx="91.5" cy="55.5" r="1.5" fill="white"/>
<circle cx="100.5" cy="55.5" r="1.5" fill="white"/>
<circle cx="109.5" cy="55.5" r="1.5" fill="white"/>
<circle cx="118.5" cy="55.5" r="1.5" fill="white"/>
<circle cx="127.5" cy="55.5" r="1.5" fill="white"/>
<circle cx="136.5" cy="55.5" r="1.5" fill="white"/>
<circle cx="145.5" cy="55.5" r="1.5" fill="white"/>
<circle cx="1.5" cy="64.5" r="1.5" fill="white"/>
<circle cx="10.5" cy="64.5" r="1.5" fill="white"/>
<circle cx="19.5" cy="64.5" r="1.5" fill="white"/>
<circle cx="28.5" cy="64.5" r="1.5" fill="white"/>
<circle cx="37.5" cy="64.5" r="1.5" fill="white"/>
<circle cx="46.5" cy="64.5" r="1.5" fill="white"/>
<circle cx="55.5" cy="64.5" r="1.5" fill="white"/>
<circle cx="64.5" cy="64.5" r="1.5" fill="white"/>
<circle cx="73.5" cy="64.5" r="1.5" fill="white"/>
<circle cx="82.5" cy="64.5" r="1.5" fill="white"/>
<circle cx="91.5" cy="64.5" r="1.5" fill="white"/>
<circle cx="100.5" cy="64.5" r="1.5" fill="white"/>
<circle cx="109.5" cy="64.5" r="1.5" fill="white"/>
<circle cx="118.5" cy="64.5" r="1.5" fill="white"/>
<circle cx="127.5" cy="64.5" r="1.5" fill="white"/>
<circle cx="136.5" cy="64.5" r="1.5" fill="white"/>
<circle cx="145.5" cy="64.5" r="1.5" fill="white"/>
<circle cx="1.5" cy="73.5" r="1.5" fill="white"/>
<circle cx="10.5" cy="73.5" r="1.5" fill="white"/>
<circle cx="19.5" cy="73.5" r="1.5" fill="white"/>
<circle cx="28.5" cy="73.5" r="1.5" fill="white"/>
<circle cx="37.5" cy="73.5" r="1.5" fill="white"/>
<circle cx="46.5" cy="73.5" r="1.5" fill="white"/>
<circle cx="55.5" cy="73.5" r="1.5" fill="white"/>
<circle cx="64.5" cy="73.5" r="1.5" fill="white"/>
<circle cx="73.5" cy="73.5" r="1.5" fill="white"/>
<circle cx="82.5" cy="73.5" r="1.5" fill="white"/>
<circle cx="91.5" cy="73.5" r="1.5" fill="white"/>
<circle cx="100.5" cy="73.5" r="1.5" fill="white"/>
<circle cx="109.5" cy="73.5" r="1.5" fill="white"/>
<circle cx="118.5" cy="73.5" r="1.5" fill="white"/>
<circle cx="127.5" cy="73.5" r="1.5" fill="white"/>
<circle cx="136.5" cy="73.5" r="1.5" fill="white"/>
<circle cx="145.5" cy="73.5" r="1.5" fill="white"/>
<circle cx="1.5" cy="82.5" r="1.5" fill="white"/>
<circle cx="10.5" cy="82.5" r="1.5" fill="white"/>
<circle cx="19.5" cy="82.5" r="1.5" fill="white"/>
<circle cx="28.5" cy="82.5" r="1.5" fill="white"/>
<circle cx="37.5" cy="82.5" r="1.5" fill="white"/>
<circle cx="46.5" cy="82.5" r="1.5" fill="white"/>
<circle cx="55.5" cy="82.5" r="1.5" fill="white"/>
<circle cx="64.5" cy="82.5" r="1.5" fill="white"/>
<circle cx="73.5" cy="82.5" r="1.5" fill="white"/>
<circle cx="82.5" cy="82.5" r="1.5" fill="white"/>
<circle cx="91.5" cy="82.5" r="1.5" fill="white"/>
<circle cx="100.5" cy="82.5" r="1.5" fill="white"/>
<circle cx="109.5" cy="82.5" r="1.5" fill="white"/>
<circle cx="118.5" cy="82.5" r="1.5" fill="white"/>
<circle cx="127.5" cy="82.5" r="1.5" fill="white"/>
<circle cx="136.5" cy="82.5" r="1.5" fill="white"/>
<circle cx="145.5" cy="82.5" r="1.5" fill="white"/>
<circle cx="1.5" cy="91.5" r="1.5" fill="white"/>
<circle cx="10.5" cy="91.5" r="1.5" fill="white"/>
<circle cx="19.5" cy="91.5" r="1.5" fill="white"/>
<circle cx="28.5" cy="91.5" r="1.5" fill="white"/>
<circle cx="37.5" cy="91.5" r="1.5" fill="white"/>
<circle cx="46.5" cy="91.5" r="1.5" fill="white"/>
<circle cx="55.5" cy="91.5" r="1.5" fill="white"/>
<circle cx="64.5" cy="91.5" r="1.5" fill="white"/>
<circle cx="73.5" cy="91.5" r="1.5" fill="white"/>
<circle cx="82.5" cy="91.5" r="1.5" fill="white"/>
<circle cx="91.5" cy="91.5" r="1.5" fill="white"/>
<circle cx="100.5" cy="91.5" r="1.5" fill="white"/>
<circle cx="109.5" cy="91.5" r="1.5" fill="white"/>
<circle cx="118.5" cy="91.5" r="1.5" fill="white"/>
<circle cx="127.5" cy="91.5" r="1.5" fill="white"/>
<circle cx="136.5" cy="91.5" r="1.5" fill="white"/>
<circle cx="145.5" cy="91.5" r="1.5" fill="white"/>
<circle cx="1.5" cy="100.5" r="1.5" fill="white"/>
<circle cx="10.5" cy="100.5" r="1.5" fill="white"/>
<circle cx="19.5" cy="100.5" r="1.5" fill="white"/>
<circle cx="28.5" cy="100.5" r="1.5" fill="white"/>
<circle cx="37.5" cy="100.5" r="1.5" fill="white"/>
<circle cx="46.5" cy="100.5" r="1.5" fill="white"/>
<circle cx="55.5" cy="100.5" r="1.5" fill="white"/>
<circle cx="64.5" cy="100.5" r="1.5" fill="white"/>
<circle cx="73.5" cy="100.5" r="1.5" fill="white"/>
<circle cx="82.5" cy="100.5" r="1.5" fill="white"/>
<circle cx="91.5" cy="100.5" r="1.5" fill="white"/>
<circle cx="100.5" cy="100.5" r="1.5" fill="white"/>
<circle cx="109.5" cy="100.5" r="1.5" fill="white"/>
<circle cx="118.5" cy="100.5" r="1.5" fill="white"/>
<circle cx="127.5" cy="100.5" r="1.5" fill="white"/>
<circle cx="136.5" cy="100.5" r="1.5" fill="white"/>
<circle cx="145.5" cy="100.5" r="1.5" fill="white"/>
<circle cx="1.5" cy="109.5" r="1.5" fill="white"/>
<circle cx="10.5" cy="109.5" r="1.5" fill="white"/>
<circle cx="19.5" cy="109.5" r="1.5" fill="white"/>
<circle cx="28.5" cy="109.5" r="1.5" fill="white"/>
<circle cx="37.5" cy="109.5" r="1.5" fill="white"/>
<circle cx="46.5" cy="109.5" r="1.5" fill="white"/>
<circle cx="55.5" cy="109.5" r="1.5" fill="white"/>
<circle cx="64.5" cy="109.5" r="1.5" fill="white"/>
<circle cx="73.5" cy="109.5" r="1.5" fill="white"/>
<circle cx="82.5" cy="109.5" r="1.5" fill="white"/>
<circle cx="91.5" cy="109.5" r="1.5" fill="white"/>
<circle cx="100.5" cy="109.5" r="1.5" fill="white"/>
<circle cx="109.5" cy="109.5" r="1.5" fill="white"/>
<circle cx="118.5" cy="109.5" r="1.5" fill="white"/>
<circle cx="127.5" cy="109.5" r="1.5" fill="white"/>
<circle cx="136.5" cy="109.5" r="1.5" fill="white"/>
<circle cx="145.5" cy="109.5" r="1.5" fill="white"/>
<circle cx="1.5" cy="118.5" r="1.5" fill="white"/>
<circle cx="10.5" cy="118.5" r="1.5" fill="white"/>
<circle cx="19.5" cy="118.5" r="1.5" fill="white"/>
<circle cx="28.5" cy="118.5" r="1.5" fill="white"/>
<circle cx="37.5" cy="118.5" r="1.5" fill="white"/>
<circle cx="46.5" cy="118.5" r="1.5" fill="white"/>
<circle cx="55.5" cy="118.5" r="1.5" fill="white"/>
<circle cx="64.5" cy="118.5" r="1.5" fill="white"/>
<circle cx="73.5" cy="118.5" r="1.5" fill="white"/>
<circle cx="82.5" cy="118.5" r="1.5" fill="white"/>
<circle cx="91.5" cy="118.5" r="1.5" fill="white"/>
<circle cx="100.5" cy="118.5" r="1.5" fill="white"/>
<circle cx="109.5" cy="118.5" r="1.5" fill="white"/>
<circle cx="118.5" cy="118.5" r="1.5" fill="white"/>
<circle cx="127.5" cy="118.5" r="1.5" fill="white"/>
<circle cx="136.5" cy="118.5" r="1.5" fill="white"/>
<circle cx="145.5" cy="118.5" r="1.5" fill="white"/>
<circle cx="1.5" cy="127.5" r="1.5" fill="white"/>
<circle cx="10.5" cy="127.5" r="1.5" fill="white"/>
<circle cx="19.5" cy="127.5" r="1.5" fill="white"/>
<circle cx="28.5" cy="127.5" r="1.5" fill="white"/>
<circle cx="37.5" cy="127.5" r="1.5" fill="white"/>
<circle cx="46.5" cy="127.5" r="1.5" fill="white"/>
<circle cx="55.5" cy="127.5" r="1.5" fill="white"/>
<circle cx="64.5" cy="127.5" r="1.5" fill="white"/>
<circle cx="73.5" cy="127.5" r="1.5" fill="white"/>
<circle cx="82.5" cy="127.5" r="1.5" fill="white"/>
<circle cx="91.5" cy="127.5" r="1.5" fill="white"/>
<circle cx="100.5" cy="127.5" r="1.5" fill="white"/>
<circle cx="109.5" cy="127.5" r="1.5" fill="white"/>
<circle cx="118.5" cy="127.5" r="1.5" fill="white"/>
<circle cx="127.5" cy="127.5" r="1.5" fill="white"/>
<circle cx="136.5" cy="127.5" r="1.5" fill="white"/>
<circle cx="145.5" cy="127.5" r="1.5" fill="white"/>
<circle cx="1.5" cy="136.5" r="1.5" fill="white"/>
<circle cx="10.5" cy="136.5" r="1.5" fill="white"/>
<circle cx="19.5" cy="136.5" r="1.5" fill="white"/>
<circle cx="28.5" cy="136.5" r="1.5" fill="white"/>
<circle cx="37.5" cy="136.5" r="1.5" fill="white"/>
<circle cx="46.5" cy="136.5" r="1.5" fill="white"/>
<circle cx="55.5" cy="136.5" r="1.5" fill="white"/>
<circle cx="64.5" cy="136.5" r="1.5" fill="white"/>
<circle cx="73.5" cy="136.5" r="1.5" fill="white"/>
<circle cx="82.5" cy="136.5" r="1.5" fill="white"/>
<circle cx="91.5" cy="136.5" r="1.5" fill="white"/>
<circle cx="100.5" cy="136.5" r="1.5" fill="white"/>
<circle cx="109.5" cy="136.5" r="1.5" fill="white"/>
<circle cx="118.5" cy="136.5" r="1.5" fill="white"/>
<circle cx="127.5" cy="136.5" r="1.5" fill="white"/>
<circle cx="136.5" cy="136.5" r="1.5" fill="white"/>
<circle cx="145.5" cy="136.5" r="1.5" fill="white"/>
<circle cx="1.5" cy="145.5" r="1.5" fill="white"/>
<circle cx="10.5" cy="145.5" r="1.5" fill="white"/>
<circle cx="19.5" cy="145.5" r="1.5" fill="white"/>
<circle cx="28.5" cy="145.5" r="1.5" fill="white"/>
<circle cx="37.5" cy="145.5" r="1.5" fill="white"/>
<circle cx="46.5" cy="145.5" r="1.5" fill="white"/>
<circle cx="55.5" cy="145.5" r="1.5" fill="white"/>
<circle cx="64.5" cy="145.5" r="1.5" fill="white"/>
<circle cx="73.5" cy="145.5" r="1.5" fill="white"/>
<circle cx="82.5" cy="145.5" r="1.5" fill="white"/>
<circle cx="91.5" cy="145.5" r="1.5" fill="white"/>
<circle cx="100.5" cy="145.5" r="1.5" fill="white"/>
<circle cx="109.5" cy="145.5" r="1.5" fill="white"/>
<circle cx="118.5" cy="145.5" r="1.5" fill="white"/>
<circle cx="127.5" cy="145.5" r="1.5" fill="white"/>
<circle cx="136.5" cy="145.5" r="1.5" fill="white"/>
<circle cx="145.5" cy="145.5" r="1.5" fill="white"/>
</g>
</g>
<defs>
<clipPath id="clip0_162_14518">
<rect width="150" height="150" fill="white"/>
</clipPath>
</defs>
</svg>
