<svg width="27" height="30" viewBox="0 0 27 30" fill="none" xmlns="http://www.w3.org/2000/svg">
<path d="M21.6796 19.896C20.4195 19.8955 19.2095 20.4114 18.3089 21.3329L9.53059 16.1726C9.71098 15.3943 9.71098 14.5822 9.53059 13.8039L18.3062 8.64367C19.126 9.47744 20.2029 9.97891 21.3441 10.0583C22.4853 10.1377 23.6163 9.78978 24.5345 9.07691C25.4528 8.36403 26.0984 7.33272 26.3557 6.16759C26.6131 5.00247 26.4654 3.77961 25.9391 2.71794C25.4128 1.65627 24.5423 0.825117 23.4834 0.37327C22.4244 -0.0785778 21.2463 -0.121613 20.1598 0.251868C19.0733 0.625349 18.1494 1.39096 17.5535 2.41164C16.9577 3.43232 16.7287 4.64142 16.9077 5.82248L7.92499 11.1054C7.21943 10.4908 6.36095 10.0992 5.45014 9.97633C4.53933 9.8535 3.61389 10.0046 2.78226 10.4119C1.95062 10.8192 1.24722 11.4659 0.754466 12.2761C0.261708 13.0864 0 14.0267 0 14.9868C0 15.947 0.261708 16.8873 0.754466 17.6976C1.24722 18.5078 1.95062 19.1545 2.78226 19.5618C3.61389 19.9691 4.53933 20.1202 5.45014 19.9973C6.36095 19.8745 7.21943 19.4828 7.92499 18.8682L16.9077 24.1541C16.7524 25.1744 16.9 26.22 17.3307 27.1499C17.7614 28.0797 18.4544 28.8492 19.3164 29.3545C20.1783 29.8598 21.1676 30.0767 22.1511 29.9759C23.1346 29.8751 24.0648 29.4614 24.8165 28.7907C25.5681 28.12 26.105 27.2245 26.3547 26.2249C26.6045 25.2252 26.5551 24.1696 26.2133 23.2002C25.8714 22.2308 25.2535 21.3944 24.4428 20.8035C23.6322 20.2127 22.6678 19.896 21.6796 19.896Z" fill="url(#paint0_linear_254_8289)"/>
<defs>
<linearGradient id="paint0_linear_254_8289" x1="-3.37847e-07" y1="30" x2="26.6705" y2="7.64489" gradientUnits="userSpaceOnUse">
<stop stop-color="#7B00DB"/>
<stop offset="1" stop-color="#ED1F78"/>
</linearGradient>
</defs>
</svg>
