<svg width="136" height="136" viewBox="0 0 136 136" fill="none" xmlns="http://www.w3.org/2000/svg">
<circle cx="68" cy="67.9999" r="67.9999" fill="#028CB0"/>
<path d="M21.6406 67.9998C21.6406 86.371 32.3263 102.194 47.7795 109.715L25.6683 49.1354C23.0132 55.0701 21.6407 61.4983 21.6406 67.9998ZM68.0001 114.359C73.384 114.359 78.5625 113.414 83.4122 111.729L83.0834 111.112L68.8221 72.0686L54.9307 112.469C59.0405 113.702 63.4381 114.359 68.0001 114.359ZM74.3704 46.2585L91.1387 96.1114L95.7829 80.6582C97.7557 74.2468 99.2763 69.6438 99.2763 65.6572C99.2763 59.9033 97.2214 55.9578 95.4952 52.9165C93.1115 49.0532 90.9333 45.8064 90.9333 42.0253C90.9333 37.751 94.139 33.8056 98.742 33.8056H99.3174C90.7752 25.9635 79.5961 21.621 68.0001 21.6403C60.3221 21.6389 52.7641 23.5461 46.0061 27.1906C39.2481 30.835 33.5021 36.1023 29.285 42.5185L32.2441 42.6007C37.0938 42.6007 44.5737 41.9842 44.5737 41.9842C47.1219 41.8609 47.4096 45.5187 44.9025 45.8064C44.9025 45.8064 42.3955 46.1352 39.5597 46.2585L56.4924 96.4813L66.6438 66.0682L59.4104 46.2585C57.7902 46.1691 56.1729 46.032 54.5608 45.8475C52.0537 45.6831 52.3414 41.8609 54.8485 41.9842C54.8485 41.9842 62.4929 42.6007 67.0548 42.6007C71.9045 42.6007 79.3845 41.9842 79.3845 41.9842C81.8915 41.8609 82.2203 45.5187 79.7133 45.8064C79.7133 45.8064 77.2062 46.0941 74.3704 46.2585ZM91.3031 108.071C98.3164 103.993 104.137 98.1463 108.183 91.1146C112.229 84.0828 114.359 76.1125 114.36 67.9998C114.36 59.9444 112.305 52.3822 108.688 45.7653C109.422 53.0451 108.32 60.3928 105.482 67.1367L91.3031 108.071ZM68.0001 121.428C53.83 121.428 40.2402 115.799 30.2204 105.779C20.2006 95.7597 14.5716 82.1699 14.5716 67.9998C14.5716 53.8297 20.2006 40.2399 30.2204 30.2201C40.2402 20.2003 53.83 14.5713 68.0001 14.5713C82.1702 14.5713 95.76 20.2003 105.78 30.2201C115.8 40.2399 121.429 53.8297 121.429 67.9998C121.429 82.1699 115.8 95.7597 105.78 105.779C95.76 115.799 82.1702 121.428 68.0001 121.428Z" fill="white"/>
</svg>
